<svg data-viz-at="2026-08-31" class="vzf04e75170022" viewBox="0 0 600 375" xmlns="http://www.w3.org/2000/svg" role="img" aria-label="wireframe schematic — the app’s own layout, drawn frame by frame: the given, then each beat. given the guide at #howitworks; beat 1: you open it → two acts tell the same three moments — assigning work, reviewing it, two weeks later — first without the tool (&quot;Done, boss!&quot;, a wall of code, the same bug back) then with it, every step a drawn scene; beat 2: you click → the walkthrough steps forward one scene and holds — it never advances on its own" data-viz-hash="f04e751753709cfc" data-viz-archetype="ui-mirror" data-viz-kind="wireframe" data-viz-layout="0022383db3b74600" data-viz-kit="mirror-6" data-viz-beats="2" data-viz-frames="2" data-viz-phases="-0.32 -3.5 -3.5" data-viz-subphases="-0.32 -3.5|-3.5 -3.5"><style>.vzf04e75170022 .wf0{animation:vf04e75170022f0 calc(4s / var(--spd, 1)) infinite}@keyframes vf04e75170022f0{0%{opacity:1}10%{opacity:1}50%{opacity:0}96.9%{opacity:0}97%{opacity:1}100%{opacity:1}}.vzf04e75170022 .wf1{animation:vf04e75170022f1 calc(4s / var(--spd, 1)) infinite}@keyframes vf04e75170022f1{0%{opacity:0}10%{opacity:0}50%{opacity:1}96.9%{opacity:1}97%{opacity:0}100%{opacity:0}}</style><rect x="0.5" y="0.5" width="599" height="374" rx="6" fill="var(--paper)" stroke="var(--line2)" stroke-width="1"/><g class="wf0"><rect x="24.6" y="94.6" width="550.8" height="320.8" rx="4" fill="none" stroke="var(--hair)" stroke-width="0.8"/><rect x="24.6" y="117.1" width="550.8" height="298.3" rx="4" fill="none" stroke="var(--hair)" stroke-width="0.8"/><rect x="24.6" y="117.1" width="550.8" height="187.1" rx="4" fill="none" stroke="var(--hair)" stroke-width="0.8"/><rect x="32.9" y="125.4" width="425.8" height="170.4" rx="4" fill="none" stroke="var(--hair)" stroke-width="0.8"/><rect x="32.9" y="144.6" width="425.8" height="151.7" rx="4" fill="none" stroke="var(--hair)" stroke-width="0.8"/><rect x="24.6" y="309.6" width="550.8" height="105.8" rx="4" fill="none" stroke="var(--hair)" stroke-width="0.8"/><rect x="54.2" y="-16.7" width="491.7" height="93.3" rx="4" fill="none" stroke="var(--hair)" stroke-width="0.8"/><rect x="32.9" y="317.9" width="425.8" height="89.2" rx="4" fill="none" stroke="var(--hair)" stroke-width="0.8"/><rect x="54.2" y="87.1" width="491.7" height="69.2" rx="4" fill="none" stroke="var(--hair)" stroke-width="0.8"/><rect x="32.9" y="337.1" width="425.8" height="70.4" rx="4" fill="none" stroke="var(--hair)" stroke-width="0.8"/><rect x="24.6" y="55.8" width="550.8" height="33.8" rx="4" fill="none" stroke="var(--hair)" stroke-width="0.8"/><rect x="467.1" y="125.4" width="100" height="170.4" rx="4" fill="none" stroke="var(--hair)" stroke-width="0.8"/><rect x="62.5" y="13.3" width="475" height="35.4" rx="4" fill="none" stroke="var(--hair)" stroke-width="0.8"/><rect x="0" y="0" width="600" height="22.9" rx="4" fill="none" stroke="var(--hair)" stroke-width="0.8"/><rect x="0" y="0" width="600" height="22.5" rx="4" fill="none" stroke="var(--hair)" stroke-width="0.8"/><rect x="24.6" y="94.6" width="550.8" height="22.5" rx="4" fill="none" stroke="var(--hair)" stroke-width="0.8"/><rect x="467.1" y="317.9" width="100" height="89.2" rx="4" fill="none" stroke="var(--hair)" stroke-width="0.8"/><rect x="467.1" y="158.8" width="100" height="50" rx="4" fill="none" stroke="var(--hair)" stroke-width="0.8"/><rect x="467.1" y="351.3" width="100" height="50" rx="4" fill="none" stroke="var(--hair)" stroke-width="0.8"/><rect x="467.5" y="159.2" width="99.2" height="49.2" rx="3" fill="var(--wash)" stroke="var(--hair)" stroke-width="0.8"/><rect x="467.5" y="351.7" width="99.2" height="49.2" rx="3" fill="var(--wash)" stroke="var(--hair)" stroke-width="0.8"/><rect x="32.9" y="162.9" width="425.8" height="10.4" rx="3" fill="var(--paper)" stroke="var(--line)" stroke-width="0.9"/><rect x="32.9" y="173.3" width="425.8" height="10.4" rx="3" fill="var(--paper)" stroke="var(--line)" stroke-width="0.9"/><rect x="32.9" y="183.3" width="425.8" height="10.4" rx="3" fill="var(--paper)" stroke="var(--line)" stroke-width="0.9"/><rect x="32.9" y="214.6" width="425.8" height="10.4" rx="3" fill="var(--paper)" stroke="var(--line)" stroke-width="0.9"/><rect x="32.9" y="225" width="425.8" height="10.4" rx="3" fill="var(--paper)" stroke="var(--line)" stroke-width="0.9"/><rect x="32.9" y="235" width="425.8" height="10.4" rx="3" fill="var(--paper)" stroke="var(--line)" stroke-width="0.9"/><rect x="32.9" y="245.4" width="425.8" height="10.4" rx="3" fill="var(--paper)" stroke="var(--line)" stroke-width="0.9"/><rect x="32.9" y="255.4" width="425.8" height="10.4" rx="3" fill="var(--paper)" stroke="var(--line)" stroke-width="0.9"/><rect x="32.9" y="265.8" width="425.8" height="10.4" rx="3" fill="var(--paper)" stroke="var(--line)" stroke-width="0.9"/><rect x="32.9" y="275.8" width="425.8" height="10.4" rx="3" fill="var(--paper)" stroke="var(--line)" stroke-width="0.9"/><rect x="32.9" y="355.4" width="425.8" height="10.4" rx="3" fill="var(--paper)" stroke="var(--line)" stroke-width="0.9"/><rect x="32.9" y="153.3" width="425.8" height="10" rx="3" fill="var(--paper)" stroke="var(--line)" stroke-width="0.9"/><rect x="32.9" y="205" width="425.8" height="10" rx="3" fill="var(--paper)" stroke="var(--line)" stroke-width="0.9"/><rect x="32.9" y="345.8" width="425.8" height="10" rx="3" fill="var(--paper)" stroke="var(--line)" stroke-width="0.9"/><rect x="32.9" y="286.3" width="425.8" height="9.6" rx="3" fill="var(--paper)" stroke="var(--line)" stroke-width="0.9"/><rect x="32.9" y="144.6" width="425.8" height="8.8" rx="3" fill="var(--paper)" stroke="var(--line)" stroke-width="0.9"/><rect x="32.9" y="196.3" width="425.8" height="8.8" rx="3" fill="var(--paper)" stroke="var(--line)" stroke-width="0.9"/><rect x="32.9" y="337.1" width="425.8" height="8.8" rx="3" fill="var(--paper)" stroke="var(--line)" stroke-width="0.9"/><rect x="32.9" y="368.3" width="425.8" height="8.8" rx="3" fill="var(--paper)" stroke="var(--line)" stroke-width="0.9"/><rect x="24.6" y="55.8" width="87.9" height="33.8" rx="7" fill="var(--wash)" stroke="var(--line2)" stroke-width="0.9"/><rect x="42.2" y="70.7" width="52.7" height="4" rx="3" fill="var(--line3)"/><rect x="115" y="55.8" width="87.9" height="33.8" rx="7" fill="var(--wash)" stroke="var(--line2)" stroke-width="0.9"/><rect x="132.6" y="70.7" width="52.7" height="4" rx="3" fill="var(--line3)"/><rect x="205.4" y="55.8" width="87.9" height="33.8" rx="7" fill="var(--wash)" stroke="var(--line2)" stroke-width="0.9"/><rect x="223" y="70.7" width="52.7" height="4" rx="3" fill="var(--line3)"/><rect x="295.8" y="55.8" width="87.9" height="33.8" rx="7" fill="var(--wash)" stroke="var(--line2)" stroke-width="0.9"/><rect x="313.4" y="70.7" width="52.7" height="4" rx="3" fill="var(--line3)"/><rect x="386.3" y="55.8" width="87.9" height="33.8" rx="7" fill="var(--wash)" stroke="var(--line2)" stroke-width="0.9"/><rect x="403.9" y="70.7" width="52.7" height="4" rx="3" fill="var(--line3)"/><rect x="476.7" y="55.8" width="87.9" height="33.8" rx="7" fill="var(--wash)" stroke="var(--line2)" stroke-width="0.9"/><rect x="494.3" y="70.7" width="52.7" height="4" rx="3" fill="var(--line3)"/><rect x="353.3" y="5.4" width="104.2" height="12.1" rx="3" fill="var(--paper)" stroke="var(--ai-line)" stroke-width="1"/><rect x="357.3" y="9.5" width="52.1" height="4" rx="3" fill="var(--line2)"/><rect x="523.3" y="125.4" width="43.8" height="28.8" rx="4" fill="none" stroke="var(--hair)" stroke-width="0.8"/><rect x="56.3" y="208" width="181.3" height="2.7" rx="3" fill="var(--wash)"/><rect x="525.4" y="317.9" width="41.3" height="28.8" rx="4" fill="none" stroke="var(--hair)" stroke-width="0.8"/><rect x="56.3" y="218" width="142.5" height="2.7" rx="3" fill="var(--wash)"/><rect x="56.3" y="258.8" width="137.1" height="2.7" rx="3" fill="var(--wash)"/><rect x="56.3" y="358.8" width="112.1" height="2.7" rx="3" fill="var(--wash)"/><rect x="77.5" y="-4.9" width="92.9" height="3.5" rx="3" fill="var(--line2)"/><rect x="56.3" y="228.4" width="106.7" height="2.7" rx="3" fill="var(--wash)"/><rect x="210.4" y="78.8" width="77.9" height="3.3" rx="3" fill="var(--wash)"/><rect x="56.3" y="238.4" width="95.8" height="2.7" rx="3" fill="var(--wash)"/><rect x="56.3" y="166.3" width="95.4" height="2.7" rx="3" fill="var(--wash)"/><rect x="56.3" y="348.8" width="94.6" height="2.7" rx="3" fill="var(--wash)"/><rect x="77.5" y="3" width="92.9" height="2.7" rx="3" fill="var(--wash)"/><rect x="81.7" y="35.1" width="83.8" height="2.5" rx="3" fill="var(--wash)"/><rect x="56.3" y="186.7" width="75.4" height="2.7" rx="3" fill="var(--wash)"/><rect x="53.3" y="9.2" width="72.9" height="2.7" rx="3" fill="var(--wash)"/><rect x="56.3" y="156.3" width="72.1" height="2.7" rx="3" fill="var(--wash)"/><rect x="56.3" y="176.7" width="70.8" height="2.7" rx="3" fill="var(--wash)"/><rect x="56.3" y="248.8" width="61.7" height="2.7" rx="3" fill="var(--wash)"/><rect x="56.3" y="279.2" width="59.2" height="2.7" rx="3" fill="var(--wash)"/><rect x="300.8" y="61" width="77.9" height="2.5" rx="3" fill="var(--wash)"/><rect x="530" y="6.3" width="38.8" height="10" rx="5" fill="var(--wash)" stroke="var(--line2)" stroke-width="0.9"/><rect x="537.8" y="9.3" width="23.3" height="4" rx="3" fill="var(--line3)"/><rect x="462.9" y="6.3" width="36.7" height="10" rx="5" fill="var(--wash)" stroke="var(--line2)" stroke-width="0.9"/><rect x="470.2" y="9.3" width="22" height="4" rx="3" fill="var(--line3)"/><rect x="470.8" y="355.4" width="62.5" height="2.5" rx="3" fill="var(--wash)"/><rect x="47.1" y="9.2" width="54.6" height="2.7" rx="3" fill="var(--wash)"/><rect x="10.8" y="9.3" width="38.8" height="3.5" rx="3" fill="var(--line2)"/><rect x="563.8" y="5.4" width="25.8" height="11.3" rx="5.7" fill="var(--wash)" stroke="var(--line2)" stroke-width="0.9"/><rect x="569" y="9.1" width="15.5" height="4" rx="3" fill="var(--line3)"/><rect x="470.8" y="162.9" width="49.2" height="2.5" rx="3" fill="var(--wash)"/><rect x="56.3" y="269.2" width="38.8" height="2.7" rx="3" fill="var(--wash)"/><rect x="32.9" y="320.7" width="25" height="4.4" rx="3" fill="var(--line2)"/><rect x="62.5" y="58.3" width="21.3" height="9.6" rx="4.8" fill="var(--wash)" stroke="var(--line2)" stroke-width="0.9"/><rect x="66.8" y="61.1" width="12.8" height="4" rx="3" fill="var(--line3)"/><rect x="110.4" y="58.3" width="21.3" height="9.6" rx="4.8" fill="var(--wash)" stroke="var(--line2)" stroke-width="0.9"/><rect x="114.7" y="61.1" width="12.8" height="4" rx="3" fill="var(--line3)"/><rect x="504.6" y="6.3" width="20" height="10" rx="5" fill="var(--wash)" stroke="var(--line2)" stroke-width="0.9"/><rect x="508.6" y="9.3" width="12" height="4" rx="3" fill="var(--line3)"/><rect x="32.9" y="128.2" width="17.1" height="4.4" rx="3" fill="var(--line2)"/><rect x="574.2" y="5.8" width="15" height="11.3" rx="5.7" fill="var(--wash)" stroke="var(--line2)" stroke-width="0.9"/><rect x="577.2" y="9.5" width="9" height="4" rx="3" fill="var(--line3)"/><rect x="47.9" y="107.6" width="17.9" height="2.7" rx="3" fill="var(--wash)"/><rect x="62.5" y="-6.1" width="10.8" height="4.3" rx="3" fill="var(--wash)"/><rect x="62.5" y="97.6" width="10.8" height="4.3" rx="3" fill="var(--wash)"/><rect x="87.9" y="61.6" width="18.3" height="2.5" rx="3" fill="var(--wash)"/><rect x="68.3" y="35.6" width="9.2" height="3.7" rx="3" fill="var(--wash)"/><rect x="33.8" y="107.6" width="10.4" height="3.5" rx="3" fill="var(--line2)"/><rect x="567.1" y="55.8" width="8.3" height="8.3" rx="4.2" fill="var(--wash)" stroke="var(--line2)" stroke-width="0.9"/><rect x="568.8" y="58" width="5" height="4" rx="3" fill="var(--line3)"/><rect x="481.7" y="60.8" width="9.6" height="2.5" rx="3" fill="var(--wash)"/><rect x="578.8" y="8.3" width="6.3" height="6.3" rx="3" fill="var(--wash)" stroke="var(--hair)" stroke-width="0.8"/><rect x="46.7" y="156.3" width="5.8" height="2.7" rx="3" fill="var(--wash)"/><rect x="46.7" y="166.3" width="5.8" height="2.7" rx="3" fill="var(--wash)"/><rect x="46.7" y="176.7" width="5.8" height="2.7" rx="3" fill="var(--wash)"/><rect x="46.7" y="186.7" width="5.8" height="2.7" rx="3" fill="var(--wash)"/><rect x="46.7" y="208" width="5.8" height="2.7" rx="3" fill="var(--wash)"/><rect x="46.7" y="218" width="5.8" height="2.7" rx="3" fill="var(--wash)"/><rect x="46.7" y="228.4" width="5.8" height="2.7" rx="3" fill="var(--wash)"/><rect x="46.7" y="238.4" width="5.8" height="2.7" rx="3" fill="var(--wash)"/><rect x="46.7" y="248.8" width="5.8" height="2.7" rx="3" fill="var(--wash)"/><rect x="46.7" y="258.8" width="5.8" height="2.7" rx="3" fill="var(--wash)"/><rect x="46.7" y="269.2" width="5.8" height="2.7" rx="3" fill="var(--wash)"/><rect x="46.7" y="279.2" width="5.8" height="2.7" rx="3" fill="var(--wash)"/><rect x="46.7" y="348.8" width="5.8" height="2.7" rx="3" fill="var(--wash)"/><rect x="46.7" y="358.8" width="5.8" height="2.7" rx="3" fill="var(--wash)"/><rect x="391.3" y="60.8" width="5" height="2.5" rx="3" fill="var(--wash)"/></g><g class="wf1"><rect x="24.6" y="94.6" width="550.8" height="320.8" rx="4" fill="none" stroke="var(--hair)" stroke-width="0.8"/><rect x="24.6" y="117.1" width="550.8" height="298.3" rx="4" fill="none" stroke="var(--hair)" stroke-width="0.8"/><rect x="24.6" y="117.1" width="550.8" height="187.1" rx="4" fill="none" stroke="var(--hair)" stroke-width="0.8"/><rect x="32.9" y="125.4" width="425.8" height="170.4" rx="4" fill="none" stroke="var(--hair)" stroke-width="0.8"/><rect x="32.9" y="144.6" width="425.8" height="151.7" rx="4" fill="none" stroke="var(--hair)" stroke-width="0.8"/><rect x="24.6" y="309.6" width="550.8" height="105.8" rx="4" fill="none" stroke="var(--hair)" stroke-width="0.8"/><rect x="54.2" y="-16.7" width="491.7" height="93.3" rx="4" fill="none" stroke="var(--hair)" stroke-width="0.8"/><rect x="32.9" y="317.9" width="425.8" height="89.2" rx="4" fill="none" stroke="var(--hair)" stroke-width="0.8"/><rect x="54.2" y="87.1" width="491.7" height="69.2" rx="4" fill="none" stroke="var(--hair)" stroke-width="0.8"/><rect x="32.9" y="337.1" width="425.8" height="70.4" rx="4" fill="none" stroke="var(--hair)" stroke-width="0.8"/><rect x="24.6" y="55.8" width="550.8" height="33.8" rx="4" fill="none" stroke="var(--hair)" stroke-width="0.8"/><rect x="467.1" y="125.4" width="100" height="170.4" rx="4" fill="none" stroke="var(--hair)" stroke-width="0.8"/><rect x="62.5" y="13.3" width="475" height="35.4" rx="4" fill="none" stroke="var(--hair)" stroke-width="0.8"/><rect x="0" y="0" width="600" height="22.9" rx="4" fill="none" stroke="var(--hair)" stroke-width="0.8"/><rect x="0" y="0" width="600" height="22.5" rx="4" fill="none" stroke="var(--hair)" stroke-width="0.8"/><rect x="24.6" y="94.6" width="550.8" height="22.5" rx="4" fill="none" stroke="var(--hair)" stroke-width="0.8"/><rect x="467.1" y="317.9" width="100" height="89.2" rx="4" fill="none" stroke="var(--hair)" stroke-width="0.8"/><rect x="467.1" y="158.8" width="100" height="50" rx="4" fill="none" stroke="var(--hair)" stroke-width="0.8"/><rect x="467.1" y="351.3" width="100" height="50" rx="4" fill="none" stroke="var(--hair)" stroke-width="0.8"/><rect x="467.5" y="159.2" width="99.2" height="49.2" rx="3" fill="var(--wash)" stroke="var(--hair)" stroke-width="0.8"/><rect x="467.5" y="351.7" width="99.2" height="49.2" rx="3" fill="var(--wash)" stroke="var(--hair)" stroke-width="0.8"/><rect x="32.9" y="162.9" width="425.8" height="10.4" rx="3" fill="var(--paper)" stroke="var(--line)" stroke-width="0.9"/><rect x="32.9" y="173.3" width="425.8" height="10.4" rx="3" fill="var(--paper)" stroke="var(--line)" stroke-width="0.9"/><rect x="32.9" y="183.3" width="425.8" height="10.4" rx="3" fill="var(--paper)" stroke="var(--line)" stroke-width="0.9"/><rect x="32.9" y="214.6" width="425.8" height="10.4" rx="3" fill="var(--paper)" stroke="var(--line)" stroke-width="0.9"/><rect x="32.9" y="225" width="425.8" height="10.4" rx="3" fill="var(--paper)" stroke="var(--line)" stroke-width="0.9"/><rect x="32.9" y="235" width="425.8" height="10.4" rx="3" fill="var(--paper)" stroke="var(--line)" stroke-width="0.9"/><rect x="32.9" y="245.4" width="425.8" height="10.4" rx="3" fill="var(--paper)" stroke="var(--line)" stroke-width="0.9"/><rect x="32.9" y="255.4" width="425.8" height="10.4" rx="3" fill="var(--paper)" stroke="var(--line)" stroke-width="0.9"/><rect x="32.9" y="265.8" width="425.8" height="10.4" rx="3" fill="var(--paper)" stroke="var(--line)" stroke-width="0.9"/><rect x="32.9" y="275.8" width="425.8" height="10.4" rx="3" fill="var(--paper)" stroke="var(--line)" stroke-width="0.9"/><rect x="32.9" y="355.4" width="425.8" height="10.4" rx="3" fill="var(--paper)" stroke="var(--line)" stroke-width="0.9"/><rect x="32.9" y="153.3" width="425.8" height="10" rx="3" fill="var(--paper)" stroke="var(--line)" stroke-width="0.9"/><rect x="32.9" y="205" width="425.8" height="10" rx="3" fill="var(--paper)" stroke="var(--line)" stroke-width="0.9"/><rect x="32.9" y="345.8" width="425.8" height="10" rx="3" fill="var(--paper)" stroke="var(--line)" stroke-width="0.9"/><rect x="32.9" y="286.3" width="425.8" height="9.6" rx="3" fill="var(--paper)" stroke="var(--line)" stroke-width="0.9"/><rect x="32.9" y="144.6" width="425.8" height="8.8" rx="3" fill="var(--paper)" stroke="var(--line)" stroke-width="0.9"/><rect x="32.9" y="196.3" width="425.8" height="8.8" rx="3" fill="var(--paper)" stroke="var(--line)" stroke-width="0.9"/><rect x="32.9" y="337.1" width="425.8" height="8.8" rx="3" fill="var(--paper)" stroke="var(--line)" stroke-width="0.9"/><rect x="32.9" y="368.3" width="425.8" height="8.8" rx="3" fill="var(--paper)" stroke="var(--line)" stroke-width="0.9"/><rect x="24.6" y="55.8" width="87.9" height="33.8" rx="7" fill="var(--wash)" stroke="var(--line2)" stroke-width="0.9"/><rect x="42.2" y="70.7" width="52.7" height="4" rx="3" fill="var(--line3)"/><rect x="115" y="55.8" width="87.9" height="33.8" rx="7" fill="var(--wash)" stroke="var(--line2)" stroke-width="0.9"/><rect x="132.6" y="70.7" width="52.7" height="4" rx="3" fill="var(--line3)"/><rect x="205.4" y="55.8" width="87.9" height="33.8" rx="7" fill="var(--wash)" stroke="var(--line2)" stroke-width="0.9"/><rect x="223" y="70.7" width="52.7" height="4" rx="3" fill="var(--line3)"/><rect x="295.8" y="55.8" width="87.9" height="33.8" rx="7" fill="var(--wash)" stroke="var(--line2)" stroke-width="0.9"/><rect x="313.4" y="70.7" width="52.7" height="4" rx="3" fill="var(--line3)"/><rect x="386.3" y="55.8" width="87.9" height="33.8" rx="7" fill="var(--wash)" stroke="var(--line2)" stroke-width="0.9"/><rect x="403.9" y="70.7" width="52.7" height="4" rx="3" fill="var(--line3)"/><rect x="476.7" y="55.8" width="87.9" height="33.8" rx="7" fill="var(--wash)" stroke="var(--line2)" stroke-width="0.9"/><rect x="494.3" y="70.7" width="52.7" height="4" rx="3" fill="var(--line3)"/><rect x="353.3" y="5.4" width="104.2" height="12.1" rx="3" fill="var(--paper)" stroke="var(--ai-line)" stroke-width="1"/><rect x="357.3" y="9.5" width="52.1" height="4" rx="3" fill="var(--line2)"/><rect x="523.3" y="125.4" width="43.8" height="28.8" rx="4" fill="none" stroke="var(--hair)" stroke-width="0.8"/><rect x="56.3" y="208" width="181.3" height="2.7" rx="3" fill="var(--wash)"/><rect x="525.4" y="317.9" width="41.3" height="28.8" rx="4" fill="none" stroke="var(--hair)" stroke-width="0.8"/><rect x="56.3" y="218" width="142.5" height="2.7" rx="3" fill="var(--wash)"/><rect x="56.3" y="258.8" width="137.1" height="2.7" rx="3" fill="var(--wash)"/><rect x="56.3" y="358.8" width="112.1" height="2.7" rx="3" fill="var(--wash)"/><rect x="77.5" y="-4.9" width="92.9" height="3.5" rx="3" fill="var(--line2)"/><rect x="56.3" y="228.4" width="106.7" height="2.7" rx="3" fill="var(--wash)"/><rect x="210.4" y="78.8" width="77.9" height="3.3" rx="3" fill="var(--wash)"/><rect x="56.3" y="238.4" width="95.8" height="2.7" rx="3" fill="var(--wash)"/><rect x="56.3" y="166.3" width="95.4" height="2.7" rx="3" fill="var(--wash)"/><rect x="56.3" y="348.8" width="94.6" height="2.7" rx="3" fill="var(--wash)"/><rect x="77.5" y="3" width="92.9" height="2.7" rx="3" fill="var(--wash)"/><rect x="81.7" y="35.1" width="83.8" height="2.5" rx="3" fill="var(--wash)"/><rect x="56.3" y="186.7" width="75.4" height="2.7" rx="3" fill="var(--wash)"/><rect x="53.3" y="9.2" width="72.9" height="2.7" rx="3" fill="var(--wash)"/><rect x="56.3" y="156.3" width="72.1" height="2.7" rx="3" fill="var(--wash)"/><rect x="56.3" y="176.7" width="70.8" height="2.7" rx="3" fill="var(--wash)"/><rect x="56.3" y="248.8" width="61.7" height="2.7" rx="3" fill="var(--wash)"/><rect x="56.3" y="279.2" width="59.2" height="2.7" rx="3" fill="var(--wash)"/><rect x="300.8" y="61" width="77.9" height="2.5" rx="3" fill="var(--wash)"/><rect x="530" y="6.3" width="38.8" height="10" rx="5" fill="var(--wash)" stroke="var(--line2)" stroke-width="0.9"/><rect x="537.8" y="9.3" width="23.3" height="4" rx="3" fill="var(--line3)"/><rect x="462.9" y="6.3" width="36.7" height="10" rx="5" fill="var(--wash)" stroke="var(--line2)" stroke-width="0.9"/><rect x="470.2" y="9.3" width="22" height="4" rx="3" fill="var(--line3)"/><rect x="470.8" y="355.4" width="62.5" height="2.5" rx="3" fill="var(--wash)"/><rect x="47.1" y="9.2" width="54.6" height="2.7" rx="3" fill="var(--wash)"/><rect x="10.8" y="9.3" width="38.8" height="3.5" rx="3" fill="var(--line2)"/><rect x="563.8" y="5.4" width="25.8" height="11.3" rx="5.7" fill="var(--wash)" stroke="var(--line2)" stroke-width="0.9"/><rect x="569" y="9.1" width="15.5" height="4" rx="3" fill="var(--line3)"/><rect x="470.8" y="162.9" width="49.2" height="2.5" rx="3" fill="var(--wash)"/><rect x="56.3" y="269.2" width="38.8" height="2.7" rx="3" fill="var(--wash)"/><rect x="32.9" y="320.7" width="25" height="4.4" rx="3" fill="var(--line2)"/><rect x="62.5" y="58.3" width="21.3" height="9.6" rx="4.8" fill="var(--wash)" stroke="var(--line2)" stroke-width="0.9"/><rect x="66.8" y="61.1" width="12.8" height="4" rx="3" fill="var(--line3)"/><rect x="110.4" y="58.3" width="21.3" height="9.6" rx="4.8" fill="var(--wash)" stroke="var(--line2)" stroke-width="0.9"/><rect x="114.7" y="61.1" width="12.8" height="4" rx="3" fill="var(--line3)"/><rect x="504.6" y="6.3" width="20" height="10" rx="5" fill="var(--wash)" stroke="var(--line2)" stroke-width="0.9"/><rect x="508.6" y="9.3" width="12" height="4" rx="3" fill="var(--line3)"/><rect x="32.9" y="128.2" width="17.1" height="4.4" rx="3" fill="var(--line2)"/><rect x="574.2" y="5.8" width="15" height="11.3" rx="5.7" fill="var(--wash)" stroke="var(--line2)" stroke-width="0.9"/><rect x="577.2" y="9.5" width="9" height="4" rx="3" fill="var(--line3)"/><rect x="47.9" y="107.6" width="17.9" height="2.7" rx="3" fill="var(--wash)"/><rect x="62.5" y="-6.1" width="10.8" height="4.3" rx="3" fill="var(--wash)"/><rect x="62.5" y="97.6" width="10.8" height="4.3" rx="3" fill="var(--wash)"/><rect x="87.9" y="61.6" width="18.3" height="2.5" rx="3" fill="var(--wash)"/><rect x="68.3" y="35.6" width="9.2" height="3.7" rx="3" fill="var(--wash)"/><rect x="33.8" y="107.6" width="10.4" height="3.5" rx="3" fill="var(--line2)"/><rect x="567.1" y="55.8" width="8.3" height="8.3" rx="4.2" fill="var(--wash)" stroke="var(--line2)" stroke-width="0.9"/><rect x="568.8" y="58" width="5" height="4" rx="3" fill="var(--line3)"/><rect x="481.7" y="60.8" width="9.6" height="2.5" rx="3" fill="var(--wash)"/><rect x="578.8" y="8.3" width="6.3" height="6.3" rx="3" fill="var(--wash)" stroke="var(--hair)" stroke-width="0.8"/><rect x="46.7" y="156.3" width="5.8" height="2.7" rx="3" fill="var(--wash)"/><rect x="46.7" y="166.3" width="5.8" height="2.7" rx="3" fill="var(--wash)"/><rect x="46.7" y="176.7" width="5.8" height="2.7" rx="3" fill="var(--wash)"/><rect x="46.7" y="186.7" width="5.8" height="2.7" rx="3" fill="var(--wash)"/><rect x="46.7" y="208" width="5.8" height="2.7" rx="3" fill="var(--wash)"/><rect x="46.7" y="218" width="5.8" height="2.7" rx="3" fill="var(--wash)"/><rect x="46.7" y="228.4" width="5.8" height="2.7" rx="3" fill="var(--wash)"/><rect x="46.7" y="238.4" width="5.8" height="2.7" rx="3" fill="var(--wash)"/><rect x="46.7" y="248.8" width="5.8" height="2.7" rx="3" fill="var(--wash)"/><rect x="46.7" y="258.8" width="5.8" height="2.7" rx="3" fill="var(--wash)"/><rect x="46.7" y="269.2" width="5.8" height="2.7" rx="3" fill="var(--wash)"/><rect x="46.7" y="279.2" width="5.8" height="2.7" rx="3" fill="var(--wash)"/><rect x="46.7" y="348.8" width="5.8" height="2.7" rx="3" fill="var(--wash)"/><rect x="46.7" y="358.8" width="5.8" height="2.7" rx="3" fill="var(--wash)"/><rect x="391.3" y="60.8" width="5" height="2.5" rx="3" fill="var(--wash)"/></g></svg>
