<svg data-viz-at="2026-08-29" class="vzc504efd44e47" viewBox="0 0 600 375" xmlns="http://www.w3.org/2000/svg" role="img" aria-label="wireframe schematic — the app’s own layout, drawn frame by frame: the given, then each beat. given a requirement whose beats were harvested with their layout skeletons; beat 1: its schematic derives → it is drawn from the app's own measured layout — the page's real structure at the viewport it was measured in, with the focused element's own text where a beat ringed one; beat 2: no layout was ever harvested for it → it falls back to the archetype drawing, or to the labelled beats under an honest &quot;no schematic drawn yet&quot; — never a guessed picture" data-viz-hash="c504efd4b170dc8d" data-viz-archetype="ui-mirror" data-viz-kind="wireframe" data-viz-layout="4e4742830e69b4d9" data-viz-kit="mirror-3" data-viz-beats="2" data-viz-frames="3" data-viz-phases="-0.44 -2.65 -4.85"><style>.vzc504efd44e47 .wf0{animation:vc504efd44e47f0 calc(5.5s / var(--spd, 1)) infinite}@keyframes vc504efd44e47f0{0%{opacity:1}10%{opacity:1}30%{opacity:0}96.9%{opacity:0}97%{opacity:1}100%{opacity:1}}.vzc504efd44e47 .wf1{animation:vc504efd44e47f1 calc(5.5s / var(--spd, 1)) infinite}@keyframes vc504efd44e47f1{0%{opacity:0}10%{opacity:0}30%{opacity:1}50%{opacity:1}70%{opacity:0}100%{opacity:0}}.vzc504efd44e47 .wf2{animation:vc504efd44e47f2 calc(5.5s / var(--spd, 1)) infinite}@keyframes vc504efd44e47f2{0%{opacity:0}50%{opacity:0}70%{opacity:1}96.9%{opacity:1}97%{opacity:0}100%{opacity:0}}</style><rect x="0.5" y="0.5" width="599" height="374" rx="6" fill="var(--paper)" stroke="var(--line2)" stroke-width="1"/><g class="wf0"><rect x="24.6" y="94.6" width="550.8" height="320.8" rx="4" fill="none" stroke="var(--hair)" stroke-width="0.8"/><rect x="16.3" y="66.7" width="567.1" height="290.4" rx="4" fill="none" stroke="var(--hair)" stroke-width="0.8"/><rect x="24.6" y="117.1" width="550.8" height="298.3" rx="4" fill="none" stroke="var(--hair)" stroke-width="0.8"/><rect x="16.3" y="66.7" width="567.1" height="271.3" rx="4" fill="none" stroke="var(--hair)" stroke-width="0.8"/><rect x="24.6" y="117.1" width="550.8" height="187.1" rx="4" fill="none" stroke="var(--hair)" stroke-width="0.8"/><rect x="32.9" y="125.4" width="425.8" height="170.4" rx="4" fill="none" stroke="var(--hair)" stroke-width="0.8"/><rect x="32.9" y="144.6" width="425.8" height="151.7" rx="4" fill="none" stroke="var(--hair)" stroke-width="0.8"/><rect x="24.6" y="309.6" width="550.8" height="105.8" rx="4" fill="none" stroke="var(--hair)" stroke-width="0.8"/><rect x="32.9" y="317.9" width="425.8" height="89.2" rx="4" fill="none" stroke="var(--hair)" stroke-width="0.8"/><rect x="32.9" y="337.1" width="425.8" height="70.4" rx="4" fill="none" stroke="var(--hair)" stroke-width="0.8"/><rect x="24.6" y="55.8" width="550.8" height="33.8" rx="4" fill="none" stroke="var(--hair)" stroke-width="0.8"/><rect x="467.1" y="125.4" width="100" height="170.4" rx="4" fill="none" stroke="var(--hair)" stroke-width="0.8"/><rect x="0" y="0" width="600" height="23.3" rx="4" fill="none" stroke="var(--hair)" stroke-width="0.8"/><rect x="0" y="0" width="600" height="22.9" rx="4" fill="none" stroke="var(--hair)" stroke-width="0.8"/><rect x="24.6" y="94.6" width="550.8" height="22.5" rx="4" fill="none" stroke="var(--hair)" stroke-width="0.8"/><rect x="467.1" y="317.9" width="100" height="89.2" rx="4" fill="none" stroke="var(--hair)" stroke-width="0.8"/><rect x="467.1" y="147.9" width="100" height="50" rx="4" fill="none" stroke="var(--hair)" stroke-width="0.8"/><rect x="467.1" y="340.4" width="100" height="50" rx="4" fill="none" stroke="var(--hair)" stroke-width="0.8"/><rect x="467.5" y="148.3" width="99.2" height="49.2" rx="3" fill="var(--wash)" stroke="var(--hair)" stroke-width="0.8"/><rect x="467.5" y="340.8" width="99.2" height="49.2" rx="3" fill="var(--wash)" stroke="var(--hair)" stroke-width="0.8"/><rect x="32.9" y="162.9" width="425.8" height="10.4" rx="3" fill="var(--paper)" stroke="var(--line)" stroke-width="0.9"/><rect x="32.9" y="173.3" width="425.8" height="10.4" rx="3" fill="var(--paper)" stroke="var(--line)" stroke-width="0.9"/><rect x="32.9" y="183.3" width="425.8" height="10.4" rx="3" fill="var(--paper)" stroke="var(--line)" stroke-width="0.9"/><rect x="32.9" y="214.6" width="425.8" height="10.4" rx="3" fill="var(--paper)" stroke="var(--line)" stroke-width="0.9"/><rect x="32.9" y="225" width="425.8" height="10.4" rx="3" fill="var(--paper)" stroke="var(--line)" stroke-width="0.9"/><rect x="32.9" y="235" width="425.8" height="10.4" rx="3" fill="var(--paper)" stroke="var(--line)" stroke-width="0.9"/><rect x="32.9" y="245.4" width="425.8" height="10.4" rx="3" fill="var(--paper)" stroke="var(--line)" stroke-width="0.9"/><rect x="32.9" y="255.4" width="425.8" height="10.4" rx="3" fill="var(--paper)" stroke="var(--line)" stroke-width="0.9"/><rect x="32.9" y="265.8" width="425.8" height="10.4" rx="3" fill="var(--paper)" stroke="var(--line)" stroke-width="0.9"/><rect x="32.9" y="275.8" width="425.8" height="10.4" rx="3" fill="var(--paper)" stroke="var(--line)" stroke-width="0.9"/><rect x="32.9" y="355.4" width="425.8" height="10.4" rx="3" fill="var(--paper)" stroke="var(--line)" stroke-width="0.9"/><rect x="32.9" y="153.3" width="425.8" height="10" rx="3" fill="var(--paper)" stroke="var(--line)" stroke-width="0.9"/><rect x="32.9" y="205" width="425.8" height="10" rx="3" fill="var(--paper)" stroke="var(--line)" stroke-width="0.9"/><rect x="32.9" y="345.8" width="425.8" height="10" rx="3" fill="var(--paper)" stroke="var(--line)" stroke-width="0.9"/><rect x="57.5" y="41.7" width="505.8" height="3.3" rx="3" fill="var(--wash)"/><rect x="32.9" y="286.3" width="425.8" height="9.6" rx="3" fill="var(--paper)" stroke="var(--line)" stroke-width="0.9"/><rect x="32.9" y="144.6" width="425.8" height="8.8" rx="3" fill="var(--paper)" stroke="var(--line)" stroke-width="0.9"/><rect x="32.9" y="196.3" width="425.8" height="8.8" rx="3" fill="var(--paper)" stroke="var(--line)" stroke-width="0.9"/><rect x="32.9" y="337.1" width="425.8" height="8.8" rx="3" fill="var(--paper)" stroke="var(--line)" stroke-width="0.9"/><rect x="32.9" y="368.3" width="425.8" height="8.8" rx="3" fill="var(--paper)" stroke="var(--line)" stroke-width="0.9"/><rect x="24.6" y="55.8" width="87.9" height="33.8" rx="7" fill="var(--wash)" stroke="var(--line2)" stroke-width="0.9"/><rect x="42.2" y="70.7" width="52.7" height="4" rx="3" fill="var(--line3)"/><rect x="115" y="55.8" width="87.9" height="33.8" rx="7" fill="var(--wash)" stroke="var(--line2)" stroke-width="0.9"/><rect x="132.6" y="70.7" width="52.7" height="4" rx="3" fill="var(--line3)"/><rect x="205.4" y="55.8" width="87.9" height="33.8" rx="7" fill="var(--wash)" stroke="var(--line2)" stroke-width="0.9"/><rect x="223" y="70.7" width="52.7" height="4" rx="3" fill="var(--line3)"/><rect x="295.8" y="55.8" width="87.9" height="33.8" rx="7" fill="var(--wash)" stroke="var(--line2)" stroke-width="0.9"/><rect x="313.4" y="70.7" width="52.7" height="4" rx="3" fill="var(--line3)"/><rect x="386.3" y="55.8" width="87.9" height="33.8" rx="7" fill="var(--wash)" stroke="var(--line2)" stroke-width="0.9"/><rect x="403.9" y="70.7" width="52.7" height="4" rx="3" fill="var(--line3)"/><rect x="476.7" y="55.8" width="87.9" height="33.8" rx="7" fill="var(--wash)" stroke="var(--line2)" stroke-width="0.9"/><rect x="494.3" y="70.7" width="52.7" height="4" rx="3" fill="var(--line3)"/><rect x="353.3" y="5.4" width="104.2" height="12.1" rx="3" fill="var(--paper)" stroke="var(--ai-line)" stroke-width="1"/><rect x="357.3" y="9.5" width="52.1" height="4" rx="3" fill="var(--line2)"/><rect x="56.3" y="218" width="142.5" height="2.7" rx="3" fill="var(--wash)"/><rect x="56.3" y="258.8" width="137.1" height="2.7" rx="3" fill="var(--wash)"/><rect x="56.3" y="358.8" width="112.1" height="2.7" rx="3" fill="var(--wash)"/><rect x="56.3" y="228.4" width="106.7" height="2.7" rx="3" fill="var(--wash)"/><rect x="425.4" y="5.8" width="60" height="11.3" rx="5.7" fill="var(--wash)" stroke="var(--line2)" stroke-width="0.9"/><rect x="437.4" y="9.5" width="36" height="4" rx="3" fill="var(--line3)"/><rect x="210.4" y="78.8" width="77.9" height="3.3" rx="3" fill="var(--wash)"/><rect x="481.7" y="78.8" width="77.9" height="3.3" rx="3" fill="var(--wash)"/><rect x="56.3" y="238.4" width="95.8" height="2.7" rx="3" fill="var(--wash)"/><rect x="56.3" y="348.8" width="94.6" height="2.7" rx="3" fill="var(--wash)"/><rect x="56.3" y="248.8" width="61.7" height="2.7" rx="3" fill="var(--wash)"/><rect x="300.8" y="61" width="77.9" height="2.5" rx="3" fill="var(--wash)"/><rect x="530" y="6.3" width="38.8" height="10" rx="5" fill="var(--wash)" stroke="var(--line2)" stroke-width="0.9"/><rect x="537.8" y="9.3" width="23.3" height="4" rx="3" fill="var(--line3)"/><rect x="56.3" y="279.2" width="56.3" height="2.7" rx="3" fill="var(--wash)"/><rect x="462.9" y="6.3" width="36.7" height="10" rx="5" fill="var(--wash)" stroke="var(--line2)" stroke-width="0.9"/><rect x="470.2" y="9.3" width="22" height="4" rx="3" fill="var(--line3)"/><rect x="470.8" y="152" width="62.5" height="2.5" rx="3" fill="var(--wash)"/><rect x="470.8" y="344.5" width="62.5" height="2.5" rx="3" fill="var(--wash)"/><rect x="47.1" y="9.2" width="54.6" height="2.7" rx="3" fill="var(--wash)"/><rect x="441.7" y="55.8" width="42.1" height="7.5" rx="3.8" fill="var(--wash)" stroke="var(--line2)" stroke-width="0.9"/><rect x="450.1" y="57.6" width="25.3" height="4" rx="3" fill="var(--line3)"/><rect x="484.2" y="55.8" width="40.4" height="7.5" rx="3.8" fill="var(--wash)" stroke="var(--line2)" stroke-width="0.9"/><rect x="492.3" y="57.6" width="24.2" height="4" rx="3" fill="var(--line3)"/><rect x="563.8" y="5.8" width="25.8" height="11.3" rx="5.7" fill="var(--wash)" stroke="var(--line2)" stroke-width="0.9"/><rect x="569" y="9.5" width="15.5" height="4" rx="3" fill="var(--line3)"/><rect x="490" y="6.3" width="25.4" height="10.4" rx="5.2" fill="var(--wash)" stroke="var(--line2)" stroke-width="0.9"/><rect x="495.1" y="9.5" width="15.2" height="4" rx="3" fill="var(--line3)"/><rect x="56.3" y="269.2" width="38.8" height="2.7" rx="3" fill="var(--wash)"/><rect x="25.8" y="42.6" width="27.9" height="3.7" rx="3" fill="var(--wash)"/><rect x="32.9" y="320.7" width="25" height="4.4" rx="3" fill="var(--line2)"/><rect x="536.3" y="6.3" width="22.9" height="10.4" rx="5.2" fill="var(--wash)" stroke="var(--line2)" stroke-width="0.9"/><rect x="540.9" y="9.5" width="13.7" height="4" rx="3" fill="var(--line3)"/><rect x="515.4" y="6.3" width="20.8" height="10.4" rx="5.2" fill="var(--wash)" stroke="var(--line2)" stroke-width="0.9"/><rect x="519.6" y="9.5" width="12.5" height="4" rx="3" fill="var(--line3)"/><rect x="504.6" y="6.3" width="20" height="10" rx="5" fill="var(--wash)" stroke="var(--line2)" stroke-width="0.9"/><rect x="508.6" y="9.3" width="12" height="4" rx="3" fill="var(--line3)"/><rect x="560.8" y="55.4" width="22.9" height="8.3" rx="3" fill="var(--paper)" stroke="var(--ai-line)" stroke-width="1"/><rect x="564.8" y="57.6" width="11.5" height="4" rx="3" fill="var(--line2)"/><rect x="567.5" y="40" width="16.3" height="10.4" rx="5.2" fill="var(--wash)" stroke="var(--line2)" stroke-width="0.9"/><rect x="570.8" y="43.2" width="9.8" height="4" rx="3" fill="var(--line3)"/><rect x="574.2" y="5.8" width="15" height="11.3" rx="5.7" fill="var(--wash)" stroke="var(--line2)" stroke-width="0.9"/><rect x="577.2" y="9.5" width="9" height="4" rx="3" fill="var(--line3)"/><rect x="10.8" y="7.6" width="17.5" height="3.5" rx="3" fill="var(--line2)"/><rect x="567.1" y="55.8" width="8.3" height="8.3" rx="4.2" fill="var(--wash)" stroke="var(--line2)" stroke-width="0.9"/><rect x="568.8" y="58" width="5" height="4" rx="3" fill="var(--line3)"/><rect x="481.7" y="60.8" width="9.6" height="2.5" rx="3" fill="var(--wash)"/><rect x="578.8" y="8.3" width="6.3" height="6.3" rx="3" fill="var(--wash)" stroke="var(--hair)" stroke-width="0.8"/><rect x="46.7" y="218" width="5.8" height="2.7" rx="3" fill="var(--wash)"/><rect x="46.7" y="228.4" width="5.8" height="2.7" rx="3" fill="var(--wash)"/><rect x="46.7" y="238.4" width="5.8" height="2.7" rx="3" fill="var(--wash)"/><rect x="46.7" y="248.8" width="5.8" height="2.7" rx="3" fill="var(--wash)"/><rect x="46.7" y="258.8" width="5.8" height="2.7" rx="3" fill="var(--wash)"/><rect x="46.7" y="269.2" width="5.8" height="2.7" rx="3" fill="var(--wash)"/><rect x="46.7" y="279.2" width="5.8" height="2.7" rx="3" fill="var(--wash)"/><rect x="46.7" y="348.8" width="5.8" height="2.7" rx="3" fill="var(--wash)"/><rect x="46.7" y="358.8" width="5.8" height="2.7" rx="3" fill="var(--wash)"/><rect x="391.3" y="60.8" width="5" height="2.5" rx="3" fill="var(--wash)"/><rect x="16.3" y="43.5" width="5.4" height="2.5" rx="3" fill="var(--wash)"/><text x="147" y="211.5" font-size="4.2" font-family="var(--mono)" fill="var(--ink-3)" text-anchor="middle">A requirement and the tests that prove it are re</text><rect x="40.1" y="154.1" width="127.8" height="6.9" rx="3.5" fill="var(--paper)" stroke="var(--line2)" stroke-width="1"/><text x="104" y="159" font-size="4.2" font-family="var(--mono)" fill="var(--ink-3)" text-anchor="middle">Search across requirement text, grouped into are</text><rect x="43" y="174.5" width="102" height="6.9" rx="3.5" fill="var(--paper)" stroke="var(--line2)" stroke-width="1"/><text x="94" y="179.4" font-size="4.2" font-family="var(--mono)" fill="var(--ink-3)" text-anchor="middle">Requirements sub-group within a screen</text><rect x="40.1" y="144.1" width="104.6" height="6.9" rx="3.5" fill="var(--paper)" stroke="var(--line2)" stroke-width="1"/><text x="92.4" y="149" font-size="4.2" font-family="var(--mono)" fill="var(--ink-3)" text-anchor="middle">One card per screen, not a row of cells</text><rect x="44.5" y="164.5" width="94.3" height="6.9" rx="3.5" fill="var(--paper)" stroke="var(--line2)" stroke-width="1"/><text x="91.7" y="169.4" font-size="4.2" font-family="var(--mono)" fill="var(--ink-3)" text-anchor="middle">Home leads with what the board does</text><text x="41.5" y="132.1" font-size="4.7" font-family="var(--mono)" fill="var(--ink-3)" text-anchor="middle">Board</text><rect x="43.2" y="95.4" width="27.3" height="6.9" rx="3.5" fill="var(--paper)" stroke="var(--line2)" stroke-width="1"/><text x="56.9" y="100.3" font-size="4.2" font-family="var(--mono)" fill="var(--ink-3)" text-anchor="middle">2 screens</text><rect x="30.5" y="93.3" width="17" height="8.1" rx="4.1" fill="var(--paper)" stroke="var(--line2)" stroke-width="1"/><text x="39" y="99.1" font-size="4.9" font-family="var(--mono)" fill="var(--ink-3)" text-anchor="middle">Core</text><text x="49.6" y="159.8" font-size="4.2" font-family="var(--mono)" fill="var(--ink-3)" text-anchor="middle">✓</text><text x="49.6" y="169.8" font-size="4.2" font-family="var(--mono)" fill="var(--ink-3)" text-anchor="middle">✓</text><text x="49.6" y="180.2" font-size="4.2" font-family="var(--mono)" fill="var(--ink-3)" text-anchor="middle">✓</text><text x="49.6" y="190.2" font-size="4.2" font-family="var(--mono)" fill="var(--ink-3)" text-anchor="middle">✓</text><text x="49.6" y="211.5" font-size="4.2" font-family="var(--mono)" fill="var(--ink-3)" text-anchor="middle">✓</text></g><g class="wf1"><rect x="24.6" y="94.6" width="550.8" height="320.8" rx="4" fill="none" stroke="var(--hair)" stroke-width="0.8"/><rect x="16.3" y="66.7" width="567.1" height="290.4" rx="4" fill="none" stroke="var(--hair)" stroke-width="0.8"/><rect x="24.6" y="117.1" width="550.8" height="298.3" rx="4" fill="none" stroke="var(--hair)" stroke-width="0.8"/><rect x="16.3" y="66.7" width="567.1" height="271.3" rx="4" fill="none" stroke="var(--hair)" stroke-width="0.8"/><rect x="24.6" y="117.1" width="550.8" height="187.1" rx="4" fill="none" stroke="var(--hair)" stroke-width="0.8"/><rect x="32.9" y="125.4" width="425.8" height="170.4" rx="4" fill="none" stroke="var(--hair)" stroke-width="0.8"/><rect x="32.9" y="144.6" width="425.8" height="151.7" rx="4" fill="none" stroke="var(--hair)" stroke-width="0.8"/><rect x="24.6" y="309.6" width="550.8" height="105.8" rx="4" fill="none" stroke="var(--hair)" stroke-width="0.8"/><rect x="32.9" y="317.9" width="425.8" height="89.2" rx="4" fill="none" stroke="var(--hair)" stroke-width="0.8"/><rect x="32.9" y="337.1" width="425.8" height="70.4" rx="4" fill="none" stroke="var(--hair)" stroke-width="0.8"/><rect x="24.6" y="55.8" width="550.8" height="33.8" rx="4" fill="none" stroke="var(--hair)" stroke-width="0.8"/><rect x="467.1" y="125.4" width="100" height="170.4" rx="4" fill="none" stroke="var(--hair)" stroke-width="0.8"/><rect x="0" y="0" width="600" height="23.3" rx="4" fill="none" stroke="var(--hair)" stroke-width="0.8"/><rect x="0" y="0" width="600" height="22.9" rx="4" fill="none" stroke="var(--hair)" stroke-width="0.8"/><rect x="24.6" y="94.6" width="550.8" height="22.5" rx="4" fill="none" stroke="var(--hair)" stroke-width="0.8"/><rect x="467.1" y="317.9" width="100" height="89.2" rx="4" fill="none" stroke="var(--hair)" stroke-width="0.8"/><rect x="467.1" y="147.9" width="100" height="50" rx="4" fill="none" stroke="var(--hair)" stroke-width="0.8"/><rect x="467.1" y="340.4" width="100" height="50" rx="4" fill="none" stroke="var(--hair)" stroke-width="0.8"/><rect x="467.5" y="148.3" width="99.2" height="49.2" rx="3" fill="var(--wash)" stroke="var(--hair)" stroke-width="0.8"/><rect x="467.5" y="340.8" width="99.2" height="49.2" rx="3" fill="var(--wash)" stroke="var(--hair)" stroke-width="0.8"/><rect x="32.9" y="162.9" width="425.8" height="10.4" rx="3" fill="var(--paper)" stroke="var(--line)" stroke-width="0.9"/><rect x="32.9" y="173.3" width="425.8" height="10.4" rx="3" fill="var(--paper)" stroke="var(--line)" stroke-width="0.9"/><rect x="32.9" y="183.3" width="425.8" height="10.4" rx="3" fill="var(--paper)" stroke="var(--line)" stroke-width="0.9"/><rect x="32.9" y="214.6" width="425.8" height="10.4" rx="3" fill="var(--paper)" stroke="var(--line)" stroke-width="0.9"/><rect x="32.9" y="225" width="425.8" height="10.4" rx="3" fill="var(--paper)" stroke="var(--line)" stroke-width="0.9"/><rect x="32.9" y="235" width="425.8" height="10.4" rx="3" fill="var(--paper)" stroke="var(--line)" stroke-width="0.9"/><rect x="32.9" y="245.4" width="425.8" height="10.4" rx="3" fill="var(--paper)" stroke="var(--line)" stroke-width="0.9"/><rect x="32.9" y="255.4" width="425.8" height="10.4" rx="3" fill="var(--paper)" stroke="var(--line)" stroke-width="0.9"/><rect x="32.9" y="265.8" width="425.8" height="10.4" rx="3" fill="var(--paper)" stroke="var(--line)" stroke-width="0.9"/><rect x="32.9" y="275.8" width="425.8" height="10.4" rx="3" fill="var(--paper)" stroke="var(--line)" stroke-width="0.9"/><rect x="32.9" y="355.4" width="425.8" height="10.4" rx="3" fill="var(--paper)" stroke="var(--line)" stroke-width="0.9"/><rect x="32.9" y="153.3" width="425.8" height="10" rx="3" fill="var(--paper)" stroke="var(--line)" stroke-width="0.9"/><rect x="32.9" y="205" width="425.8" height="10" rx="3" fill="var(--paper)" stroke="var(--line)" stroke-width="0.9"/><rect x="32.9" y="345.8" width="425.8" height="10" rx="3" fill="var(--paper)" stroke="var(--line)" stroke-width="0.9"/><rect x="57.5" y="41.7" width="505.8" height="3.3" rx="3" fill="var(--wash)"/><rect x="32.9" y="286.3" width="425.8" height="9.6" rx="3" fill="var(--paper)" stroke="var(--line)" stroke-width="0.9"/><rect x="32.9" y="144.6" width="425.8" height="8.8" rx="3" fill="var(--paper)" stroke="var(--line)" stroke-width="0.9"/><rect x="32.9" y="196.3" width="425.8" height="8.8" rx="3" fill="var(--paper)" stroke="var(--line)" stroke-width="0.9"/><rect x="32.9" y="337.1" width="425.8" height="8.8" rx="3" fill="var(--paper)" stroke="var(--line)" stroke-width="0.9"/><rect x="32.9" y="368.3" width="425.8" height="8.8" rx="3" fill="var(--paper)" stroke="var(--line)" stroke-width="0.9"/><rect x="24.6" y="55.8" width="87.9" height="33.8" rx="7" fill="var(--wash)" stroke="var(--line2)" stroke-width="0.9"/><rect x="42.2" y="70.7" width="52.7" height="4" rx="3" fill="var(--line3)"/><rect x="115" y="55.8" width="87.9" height="33.8" rx="7" fill="var(--wash)" stroke="var(--line2)" stroke-width="0.9"/><rect x="132.6" y="70.7" width="52.7" height="4" rx="3" fill="var(--line3)"/><rect x="205.4" y="55.8" width="87.9" height="33.8" rx="7" fill="var(--wash)" stroke="var(--line2)" stroke-width="0.9"/><rect x="223" y="70.7" width="52.7" height="4" rx="3" fill="var(--line3)"/><rect x="295.8" y="55.8" width="87.9" height="33.8" rx="7" fill="var(--wash)" stroke="var(--line2)" stroke-width="0.9"/><rect x="313.4" y="70.7" width="52.7" height="4" rx="3" fill="var(--line3)"/><rect x="386.3" y="55.8" width="87.9" height="33.8" rx="7" fill="var(--wash)" stroke="var(--line2)" stroke-width="0.9"/><rect x="403.9" y="70.7" width="52.7" height="4" rx="3" fill="var(--line3)"/><rect x="476.7" y="55.8" width="87.9" height="33.8" rx="7" fill="var(--wash)" stroke="var(--line2)" stroke-width="0.9"/><rect x="494.3" y="70.7" width="52.7" height="4" rx="3" fill="var(--line3)"/><rect x="353.3" y="5.4" width="104.2" height="12.1" rx="3" fill="var(--paper)" stroke="var(--ai-line)" stroke-width="1"/><rect x="357.3" y="9.5" width="52.1" height="4" rx="3" fill="var(--line2)"/><rect x="56.3" y="218" width="142.5" height="2.7" rx="3" fill="var(--wash)"/><rect x="56.3" y="258.8" width="137.1" height="2.7" rx="3" fill="var(--wash)"/><rect x="56.3" y="358.8" width="112.1" height="2.7" rx="3" fill="var(--wash)"/><rect x="56.3" y="228.4" width="106.7" height="2.7" rx="3" fill="var(--wash)"/><rect x="425.4" y="5.8" width="60" height="11.3" rx="5.7" fill="var(--wash)" stroke="var(--line2)" stroke-width="0.9"/><rect x="437.4" y="9.5" width="36" height="4" rx="3" fill="var(--line3)"/><rect x="210.4" y="78.8" width="77.9" height="3.3" rx="3" fill="var(--wash)"/><rect x="481.7" y="78.8" width="77.9" height="3.3" rx="3" fill="var(--wash)"/><rect x="56.3" y="238.4" width="95.8" height="2.7" rx="3" fill="var(--wash)"/><rect x="56.3" y="348.8" width="94.6" height="2.7" rx="3" fill="var(--wash)"/><rect x="56.3" y="248.8" width="61.7" height="2.7" rx="3" fill="var(--wash)"/><rect x="300.8" y="61" width="77.9" height="2.5" rx="3" fill="var(--wash)"/><rect x="530" y="6.3" width="38.8" height="10" rx="5" fill="var(--wash)" stroke="var(--line2)" stroke-width="0.9"/><rect x="537.8" y="9.3" width="23.3" height="4" rx="3" fill="var(--line3)"/><rect x="56.3" y="279.2" width="56.3" height="2.7" rx="3" fill="var(--wash)"/><rect x="462.9" y="6.3" width="36.7" height="10" rx="5" fill="var(--wash)" stroke="var(--line2)" stroke-width="0.9"/><rect x="470.2" y="9.3" width="22" height="4" rx="3" fill="var(--line3)"/><rect x="470.8" y="152" width="62.5" height="2.5" rx="3" fill="var(--wash)"/><rect x="470.8" y="344.5" width="62.5" height="2.5" rx="3" fill="var(--wash)"/><rect x="47.1" y="9.2" width="54.6" height="2.7" rx="3" fill="var(--wash)"/><rect x="441.7" y="55.8" width="42.1" height="7.5" rx="3.8" fill="var(--wash)" stroke="var(--line2)" stroke-width="0.9"/><rect x="450.1" y="57.6" width="25.3" height="4" rx="3" fill="var(--line3)"/><rect x="484.2" y="55.8" width="40.4" height="7.5" rx="3.8" fill="var(--wash)" stroke="var(--line2)" stroke-width="0.9"/><rect x="492.3" y="57.6" width="24.2" height="4" rx="3" fill="var(--line3)"/><rect x="563.8" y="5.8" width="25.8" height="11.3" rx="5.7" fill="var(--wash)" stroke="var(--line2)" stroke-width="0.9"/><rect x="569" y="9.5" width="15.5" height="4" rx="3" fill="var(--line3)"/><rect x="490" y="6.3" width="25.4" height="10.4" rx="5.2" fill="var(--wash)" stroke="var(--line2)" stroke-width="0.9"/><rect x="495.1" y="9.5" width="15.2" height="4" rx="3" fill="var(--line3)"/><rect x="56.3" y="269.2" width="38.8" height="2.7" rx="3" fill="var(--wash)"/><rect x="25.8" y="42.6" width="27.9" height="3.7" rx="3" fill="var(--wash)"/><rect x="32.9" y="320.7" width="25" height="4.4" rx="3" fill="var(--line2)"/><rect x="536.3" y="6.3" width="22.9" height="10.4" rx="5.2" fill="var(--wash)" stroke="var(--line2)" stroke-width="0.9"/><rect x="540.9" y="9.5" width="13.7" height="4" rx="3" fill="var(--line3)"/><rect x="515.4" y="6.3" width="20.8" height="10.4" rx="5.2" fill="var(--wash)" stroke="var(--line2)" stroke-width="0.9"/><rect x="519.6" y="9.5" width="12.5" height="4" rx="3" fill="var(--line3)"/><rect x="504.6" y="6.3" width="20" height="10" rx="5" fill="var(--wash)" stroke="var(--line2)" stroke-width="0.9"/><rect x="508.6" y="9.3" width="12" height="4" rx="3" fill="var(--line3)"/><rect x="560.8" y="55.4" width="22.9" height="8.3" rx="3" fill="var(--paper)" stroke="var(--ai-line)" stroke-width="1"/><rect x="564.8" y="57.6" width="11.5" height="4" rx="3" fill="var(--line2)"/><rect x="567.5" y="40" width="16.3" height="10.4" rx="5.2" fill="var(--wash)" stroke="var(--line2)" stroke-width="0.9"/><rect x="570.8" y="43.2" width="9.8" height="4" rx="3" fill="var(--line3)"/><rect x="574.2" y="5.8" width="15" height="11.3" rx="5.7" fill="var(--wash)" stroke="var(--line2)" stroke-width="0.9"/><rect x="577.2" y="9.5" width="9" height="4" rx="3" fill="var(--line3)"/><rect x="10.8" y="7.6" width="17.5" height="3.5" rx="3" fill="var(--line2)"/><rect x="567.1" y="55.8" width="8.3" height="8.3" rx="4.2" fill="var(--wash)" stroke="var(--line2)" stroke-width="0.9"/><rect x="568.8" y="58" width="5" height="4" rx="3" fill="var(--line3)"/><rect x="481.7" y="60.8" width="9.6" height="2.5" rx="3" fill="var(--wash)"/><rect x="578.8" y="8.3" width="6.3" height="6.3" rx="3" fill="var(--wash)" stroke="var(--hair)" stroke-width="0.8"/><rect x="46.7" y="218" width="5.8" height="2.7" rx="3" fill="var(--wash)"/><rect x="46.7" y="228.4" width="5.8" height="2.7" rx="3" fill="var(--wash)"/><rect x="46.7" y="238.4" width="5.8" height="2.7" rx="3" fill="var(--wash)"/><rect x="46.7" y="248.8" width="5.8" height="2.7" rx="3" fill="var(--wash)"/><rect x="46.7" y="258.8" width="5.8" height="2.7" rx="3" fill="var(--wash)"/><rect x="46.7" y="269.2" width="5.8" height="2.7" rx="3" fill="var(--wash)"/><rect x="46.7" y="279.2" width="5.8" height="2.7" rx="3" fill="var(--wash)"/><rect x="46.7" y="348.8" width="5.8" height="2.7" rx="3" fill="var(--wash)"/><rect x="46.7" y="358.8" width="5.8" height="2.7" rx="3" fill="var(--wash)"/><rect x="391.3" y="60.8" width="5" height="2.5" rx="3" fill="var(--wash)"/><rect x="16.3" y="43.5" width="5.4" height="2.5" rx="3" fill="var(--wash)"/><rect x="0" y="0" width="600" height="375" fill="var(--ink)" opacity="0.12"/><rect x="51.5" y="201.9" width="190.9" height="16.3" rx="5.2" fill="none" stroke="var(--ai)" stroke-width="3.3" opacity="0.12"/><rect x="53.2" y="203.6" width="187.6" height="13" rx="3.5" fill="none" stroke="var(--paper)" stroke-width="1.3" opacity="0.92"/><rect x="54.2" y="204.6" width="185.5" height="10.9" rx="2.5" fill="none" stroke="var(--ai)" stroke-width="0.8"/><text x="147" y="211.5" font-size="4.2" font-family="var(--mono)" fill="var(--ink)" text-anchor="middle">A requirement and the tests that prove it are re</text><rect x="51.5" y="160.2" width="105" height="16.3" rx="5.2" fill="none" stroke="var(--ai)" stroke-width="3.3" opacity="0.12"/><rect x="53.2" y="161.9" width="101.7" height="13" rx="3.5" fill="none" stroke="var(--paper)" stroke-width="1.3" opacity="0.92"/><rect x="54.2" y="162.9" width="99.6" height="10.9" rx="2.5" fill="none" stroke="var(--ai)" stroke-width="0.8"/><rect x="40.1" y="154.1" width="127.8" height="6.9" rx="3.5" fill="var(--paper)" stroke="var(--ai)" stroke-width="1"/><text x="104" y="159" font-size="4.2" font-family="var(--mono)" fill="var(--ink)" text-anchor="middle">Search across requirement text, grouped into are</text><rect x="51.5" y="180.6" width="85" height="16.3" rx="5.2" fill="none" stroke="var(--ai)" stroke-width="3.3" opacity="0.12"/><rect x="53.2" y="182.3" width="81.7" height="13" rx="3.5" fill="none" stroke="var(--paper)" stroke-width="1.3" opacity="0.92"/><rect x="54.2" y="183.3" width="79.6" height="10.9" rx="2.5" fill="none" stroke="var(--ai)" stroke-width="0.8"/><rect x="43" y="174.5" width="102" height="6.9" rx="3.5" fill="var(--paper)" stroke="var(--ai)" stroke-width="1"/><text x="94" y="179.4" font-size="4.2" font-family="var(--mono)" fill="var(--ink)" text-anchor="middle">Requirements sub-group within a screen</text><rect x="51.5" y="150.2" width="81.7" height="16.3" rx="5.2" fill="none" stroke="var(--ai)" stroke-width="3.3" opacity="0.12"/><rect x="53.2" y="151.9" width="78.4" height="13" rx="3.5" fill="none" stroke="var(--paper)" stroke-width="1.3" opacity="0.92"/><rect x="54.2" y="152.9" width="76.3" height="10.9" rx="2.5" fill="none" stroke="var(--ai)" stroke-width="0.8"/><rect x="40.1" y="144.1" width="104.6" height="6.9" rx="3.5" fill="var(--paper)" stroke="var(--ai)" stroke-width="1"/><text x="92.4" y="149" font-size="4.2" font-family="var(--mono)" fill="var(--ink)" text-anchor="middle">One card per screen, not a row of cells</text><rect x="51.5" y="170.6" width="80.4" height="16.3" rx="5.2" fill="none" stroke="var(--ai)" stroke-width="3.3" opacity="0.12"/><rect x="53.2" y="172.3" width="77.1" height="13" rx="3.5" fill="none" stroke="var(--paper)" stroke-width="1.3" opacity="0.92"/><rect x="54.2" y="173.3" width="75" height="10.9" rx="2.5" fill="none" stroke="var(--ai)" stroke-width="0.8"/><rect x="44.5" y="164.5" width="94.3" height="6.9" rx="3.5" fill="var(--paper)" stroke="var(--ai)" stroke-width="1"/><text x="91.7" y="169.4" font-size="4.2" font-family="var(--mono)" fill="var(--ink)" text-anchor="middle">Home leads with what the board does</text><rect x="28.1" y="120.6" width="26.7" height="19.6" rx="5.2" fill="none" stroke="var(--ai)" stroke-width="3.3" opacity="0.12"/><rect x="29.8" y="122.3" width="23.4" height="16.3" rx="3.5" fill="none" stroke="var(--paper)" stroke-width="1.3" opacity="0.92"/><rect x="30.8" y="123.3" width="21.3" height="14.2" rx="2.5" fill="none" stroke="var(--ai)" stroke-width="0.8"/><text x="41.5" y="132.1" font-size="4.7" font-family="var(--mono)" fill="var(--ink)" text-anchor="middle">Board</text><rect x="43.1" y="101.5" width="27.5" height="16.3" rx="5.2" fill="none" stroke="var(--ai)" stroke-width="3.3" opacity="0.12"/><rect x="44.8" y="103.2" width="24.2" height="13" rx="3.5" fill="none" stroke="var(--paper)" stroke-width="1.3" opacity="0.92"/><rect x="45.8" y="104.2" width="22.1" height="10.9" rx="2.5" fill="none" stroke="var(--ai)" stroke-width="0.8"/><rect x="43.2" y="95.4" width="27.3" height="6.9" rx="3.5" fill="var(--paper)" stroke="var(--ai)" stroke-width="1"/><text x="56.9" y="100.3" font-size="4.2" font-family="var(--mono)" fill="var(--ink)" text-anchor="middle">2 screens</text><rect x="29" y="100.6" width="20" height="17.5" rx="5.2" fill="none" stroke="var(--ai)" stroke-width="3.3" opacity="0.12"/><rect x="30.7" y="102.3" width="16.7" height="14.2" rx="3.5" fill="none" stroke="var(--paper)" stroke-width="1.3" opacity="0.92"/><rect x="31.7" y="103.3" width="14.6" height="12.1" rx="2.5" fill="none" stroke="var(--ai)" stroke-width="0.8"/><rect x="30.5" y="93.3" width="17" height="8.1" rx="4.1" fill="var(--paper)" stroke="var(--ai)" stroke-width="1"/><text x="39" y="99.1" font-size="4.9" font-family="var(--mono)" fill="var(--ink)" text-anchor="middle">Core</text><rect x="41.9" y="150.2" width="15.4" height="16.3" rx="5.2" fill="none" stroke="var(--ai)" stroke-width="3.3" opacity="0.12"/><rect x="43.6" y="151.9" width="12.1" height="13" rx="3.5" fill="none" stroke="var(--paper)" stroke-width="1.3" opacity="0.92"/><rect x="44.6" y="152.9" width="10" height="10.9" rx="2.5" fill="none" stroke="var(--ai)" stroke-width="0.8"/><text x="49.6" y="159.8" font-size="4.2" font-family="var(--mono)" fill="var(--ink)" text-anchor="middle">✓</text><rect x="41.9" y="160.2" width="15.4" height="16.3" rx="5.2" fill="none" stroke="var(--ai)" stroke-width="3.3" opacity="0.12"/><rect x="43.6" y="161.9" width="12.1" height="13" rx="3.5" fill="none" stroke="var(--paper)" stroke-width="1.3" opacity="0.92"/><rect x="44.6" y="162.9" width="10" height="10.9" rx="2.5" fill="none" stroke="var(--ai)" stroke-width="0.8"/><text x="49.6" y="169.8" font-size="4.2" font-family="var(--mono)" fill="var(--ink)" text-anchor="middle">✓</text><rect x="41.9" y="170.6" width="15.4" height="16.3" rx="5.2" fill="none" stroke="var(--ai)" stroke-width="3.3" opacity="0.12"/><rect x="43.6" y="172.3" width="12.1" height="13" rx="3.5" fill="none" stroke="var(--paper)" stroke-width="1.3" opacity="0.92"/><rect x="44.6" y="173.3" width="10" height="10.9" rx="2.5" fill="none" stroke="var(--ai)" stroke-width="0.8"/><text x="49.6" y="180.2" font-size="4.2" font-family="var(--mono)" fill="var(--ink)" text-anchor="middle">✓</text><rect x="41.9" y="180.6" width="15.4" height="16.3" rx="5.2" fill="none" stroke="var(--ai)" stroke-width="3.3" opacity="0.12"/><rect x="43.6" y="182.3" width="12.1" height="13" rx="3.5" fill="none" stroke="var(--paper)" stroke-width="1.3" opacity="0.92"/><rect x="44.6" y="183.3" width="10" height="10.9" rx="2.5" fill="none" stroke="var(--ai)" stroke-width="0.8"/><text x="49.6" y="190.2" font-size="4.2" font-family="var(--mono)" fill="var(--ink)" text-anchor="middle">✓</text><rect x="41.9" y="201.9" width="15.4" height="16.3" rx="5.2" fill="none" stroke="var(--ai)" stroke-width="3.3" opacity="0.12"/><rect x="43.6" y="203.6" width="12.1" height="13" rx="3.5" fill="none" stroke="var(--paper)" stroke-width="1.3" opacity="0.92"/><rect x="44.6" y="204.6" width="10" height="10.9" rx="2.5" fill="none" stroke="var(--ai)" stroke-width="0.8"/><text x="49.6" y="211.5" font-size="4.2" font-family="var(--mono)" fill="var(--ink)" text-anchor="middle">✓</text><rect x="84.4" y="223.2" width="125" height="45.3" rx="4.6" fill="var(--ink)" opacity="0.1"/><rect x="84.4" y="220.7" width="125" height="45.3" rx="4.6" fill="var(--paper)" stroke="var(--line2)" stroke-width="0.4"/><path d="M143.4 220.9 L147 217.2 L150.5 220.9 Z" fill="var(--paper)"/><path d="M143.4 220.9 L147 217.2 L150.5 220.9" fill="none" stroke="var(--line2)" stroke-width="0.4" stroke-linejoin="round"/><rect x="90.7" y="225.7" width="12.8" height="6.7" rx="1.7" fill="none" stroke="var(--line2)" stroke-width="0.4"/><text x="97" y="230.5" font-size="4.2" font-family="var(--mono)" fill="var(--ink-3)" text-anchor="middle" font-weight="600">R18</text><text x="106.3" y="230.6" font-size="4.6" font-family="var(--sans)" fill="var(--ink-3)">The schematic mirrors the real UI</text><text x="90.7" y="240.6" font-size="4.2" font-family="var(--mono)" fill="var(--ink-3)" font-weight="600" letter-spacing="0.33">WHEN</text><text x="104.8" y="240.6" font-size="5.2" font-family="var(--sans)" fill="var(--ink-3)">its schematic derives</text><text x="90.7" y="249.9" font-size="4.2" font-family="var(--mono)" fill="var(--ai)" font-weight="600" letter-spacing="0.33">THEN</text><text x="104.8" y="249.9" font-size="6.3" font-family="var(--sans)" fill="var(--ink)" font-weight="600">it is drawn from the app's own</text><text x="104.8" y="258.4" font-size="6.3" font-family="var(--sans)" fill="var(--ink)" font-weight="600">measured layout — the page's…</text><path d="M197.5 256.8 l1.9 1.9 l3.7 -4.5" fill="none" stroke="var(--ok)" stroke-width="1.1" stroke-linecap="round" stroke-linejoin="round"/></g><g class="wf2"><rect x="24.6" y="309.6" width="550.8" height="105.8" rx="4" fill="none" stroke="var(--hair)" stroke-width="0.8"/><rect x="32.9" y="317.9" width="425.8" height="89.2" rx="4" fill="none" stroke="var(--hair)" stroke-width="0.8"/><rect x="32.9" y="337.1" width="425.8" height="70.4" rx="4" fill="none" stroke="var(--hair)" stroke-width="0.8"/><rect x="0" y="0" width="600" height="23.3" rx="4" fill="none" stroke="var(--hair)" stroke-width="0.8"/><rect x="0" y="0" width="600" height="22.9" rx="4" fill="none" stroke="var(--hair)" stroke-width="0.8"/><rect x="467.1" y="317.9" width="100" height="89.2" rx="4" fill="none" stroke="var(--hair)" stroke-width="0.8"/><rect x="467.1" y="340.4" width="100" height="50" rx="4" fill="none" stroke="var(--hair)" stroke-width="0.8"/><rect x="467.5" y="340.8" width="99.2" height="49.2" rx="3" fill="var(--wash)" stroke="var(--hair)" stroke-width="0.8"/><rect x="32.9" y="355.4" width="425.8" height="10.4" rx="3" fill="var(--paper)" stroke="var(--line)" stroke-width="0.9"/><rect x="32.9" y="345.8" width="425.8" height="10" rx="3" fill="var(--paper)" stroke="var(--line)" stroke-width="0.9"/><rect x="57.5" y="41.7" width="505.8" height="3.3" rx="3" fill="var(--wash)"/><rect x="32.9" y="368.3" width="425.8" height="8.8" rx="3" fill="var(--paper)" stroke="var(--line)" stroke-width="0.9"/><rect x="353.3" y="5.4" width="104.2" height="12.1" rx="3" fill="var(--paper)" stroke="var(--ai-line)" stroke-width="1"/><rect x="357.3" y="9.5" width="52.1" height="4" rx="3" fill="var(--line2)"/><rect x="56.3" y="358.8" width="112.1" height="2.7" rx="3" fill="var(--wash)"/><rect x="425.4" y="5.8" width="60" height="11.3" rx="5.7" fill="var(--wash)" stroke="var(--line2)" stroke-width="0.9"/><rect x="437.4" y="9.5" width="36" height="4" rx="3" fill="var(--line3)"/><rect x="56.3" y="348.8" width="94.6" height="2.7" rx="3" fill="var(--wash)"/><rect x="530" y="6.3" width="38.8" height="10" rx="5" fill="var(--wash)" stroke="var(--line2)" stroke-width="0.9"/><rect x="537.8" y="9.3" width="23.3" height="4" rx="3" fill="var(--line3)"/><rect x="462.9" y="6.3" width="36.7" height="10" rx="5" fill="var(--wash)" stroke="var(--line2)" stroke-width="0.9"/><rect x="470.2" y="9.3" width="22" height="4" rx="3" fill="var(--line3)"/><rect x="47.1" y="9.2" width="54.6" height="2.7" rx="3" fill="var(--wash)"/><rect x="563.8" y="5.8" width="25.8" height="11.3" rx="5.7" fill="var(--wash)" stroke="var(--line2)" stroke-width="0.9"/><rect x="569" y="9.5" width="15.5" height="4" rx="3" fill="var(--line3)"/><rect x="490" y="6.3" width="25.4" height="10.4" rx="5.2" fill="var(--wash)" stroke="var(--line2)" stroke-width="0.9"/><rect x="495.1" y="9.5" width="15.2" height="4" rx="3" fill="var(--line3)"/><rect x="25.8" y="42.6" width="27.9" height="3.7" rx="3" fill="var(--wash)"/><rect x="536.3" y="6.3" width="22.9" height="10.4" rx="5.2" fill="var(--wash)" stroke="var(--line2)" stroke-width="0.9"/><rect x="540.9" y="9.5" width="13.7" height="4" rx="3" fill="var(--line3)"/><rect x="515.4" y="6.3" width="20.8" height="10.4" rx="5.2" fill="var(--wash)" stroke="var(--line2)" stroke-width="0.9"/><rect x="519.6" y="9.5" width="12.5" height="4" rx="3" fill="var(--line3)"/><rect x="504.6" y="6.3" width="20" height="10" rx="5" fill="var(--wash)" stroke="var(--line2)" stroke-width="0.9"/><rect x="508.6" y="9.3" width="12" height="4" rx="3" fill="var(--line3)"/><rect x="567.5" y="40" width="16.3" height="10.4" rx="5.2" fill="var(--wash)" stroke="var(--line2)" stroke-width="0.9"/><rect x="570.8" y="43.2" width="9.8" height="4" rx="3" fill="var(--line3)"/><rect x="574.2" y="5.8" width="15" height="11.3" rx="5.7" fill="var(--wash)" stroke="var(--line2)" stroke-width="0.9"/><rect x="577.2" y="9.5" width="9" height="4" rx="3" fill="var(--line3)"/><rect x="10.8" y="7.6" width="17.5" height="3.5" rx="3" fill="var(--line2)"/><rect x="578.8" y="8.3" width="6.3" height="6.3" rx="3" fill="var(--wash)" stroke="var(--hair)" stroke-width="0.8"/><rect x="46.7" y="348.8" width="5.8" height="2.7" rx="3" fill="var(--wash)"/><rect x="46.7" y="358.8" width="5.8" height="2.7" rx="3" fill="var(--wash)"/><rect x="16.3" y="43.5" width="5.4" height="2.5" rx="3" fill="var(--wash)"/><rect x="0" y="0" width="600" height="375" fill="var(--ink)" opacity="0.12"/><rect x="11.5" y="52.3" width="576.7" height="300" rx="5.2" fill="none" stroke="var(--ai)" stroke-width="3.3" opacity="0.12"/><rect x="13.2" y="54" width="573.4" height="296.7" rx="3.5" fill="none" stroke="var(--paper)" stroke-width="1.3" opacity="0.92"/><rect x="14.2" y="55" width="571.3" height="294.6" rx="2.5" fill="none" stroke="var(--ai)" stroke-width="0.8"/><text x="299.9" y="207.9" font-size="16" font-family="var(--mono)" fill="var(--ink)" text-anchor="middle">SCHEMATIC BEHAVIOR PROOF no schematic drawn yet</text><rect x="3.1" y="26.5" width="593.8" height="321.7" rx="5.2" fill="none" stroke="var(--ai)" stroke-width="3.3" opacity="0.12"/><rect x="4.8" y="28.2" width="590.5" height="318.4" rx="3.5" fill="none" stroke="var(--paper)" stroke-width="1.3" opacity="0.92"/><rect x="5.8" y="29.2" width="588.4" height="316.3" rx="2.5" fill="none" stroke="var(--ai)" stroke-width="0.8"/><text x="300" y="193" font-size="16" font-family="var(--mono)" fill="var(--ink)" text-anchor="middle">R2 ✓ Passed A requirement and the tests that pro</text><rect x="19.8" y="89.8" width="560.4" height="330.4" rx="5.2" fill="none" stroke="var(--ai)" stroke-width="3.3" opacity="0.12"/><rect x="21.5" y="91.5" width="557.1" height="327.1" rx="3.5" fill="none" stroke="var(--paper)" stroke-width="1.3" opacity="0.92"/><rect x="22.5" y="92.5" width="555" height="325" rx="2.5" fill="none" stroke="var(--ai)" stroke-width="0.8"/><text x="300" y="260.6" font-size="16" font-family="var(--mono)" fill="var(--ink)" text-anchor="middle">— Core 2 screens Board / 1 · THE BOARD'S SHAPE —</text><rect x="237.4" y="7" width="125" height="45.3" rx="4.6" fill="var(--ink)" opacity="0.1"/><rect x="237.4" y="4.5" width="125" height="45.3" rx="4.6" fill="var(--paper)" stroke="var(--line2)" stroke-width="0.4"/><path d="M296.3 49.6 L299.9 53.3 L303.4 49.6 Z" fill="var(--paper)"/><path d="M296.3 49.6 L299.9 53.3 L303.4 49.6" fill="none" stroke="var(--line2)" stroke-width="0.4" stroke-linejoin="round"/><rect x="243.7" y="9.5" width="12.8" height="6.7" rx="1.7" fill="none" stroke="var(--line2)" stroke-width="0.4"/><text x="250" y="14.3" font-size="4.2" font-family="var(--mono)" fill="var(--ink-3)" text-anchor="middle" font-weight="600">R18</text><text x="259.3" y="14.4" font-size="4.6" font-family="var(--sans)" fill="var(--ink-3)">The schematic mirrors the real UI</text><text x="243.7" y="24.4" font-size="4.2" font-family="var(--mono)" fill="var(--ink-3)" font-weight="600" letter-spacing="0.33">WHEN</text><text x="257.8" y="24.4" font-size="5.2" font-family="var(--sans)" fill="var(--ink-3)">no layout was ever harvested for it</text><text x="243.7" y="33.7" font-size="4.2" font-family="var(--mono)" fill="var(--ai)" font-weight="600" letter-spacing="0.33">THEN</text><text x="257.8" y="33.7" font-size="6.3" font-family="var(--sans)" fill="var(--ink)" font-weight="600">it falls back to the archetype</text><text x="257.8" y="42.2" font-size="6.3" font-family="var(--sans)" fill="var(--ink)" font-weight="600">drawing, or to the labelled…</text><path d="M350.5 40.6 l1.9 1.9 l3.7 -4.5" fill="none" stroke="var(--ok)" stroke-width="1.1" stroke-linecap="round" stroke-linejoin="round"/></g></svg>
