<svg data-viz-at="2026-09-03" class="vz0dabc5170e86" viewBox="0 0 600 375" xmlns="http://www.w3.org/2000/svg" role="img" aria-label="wireframe schematic — the app’s own layout, drawn frame by frame: the given, then each beat. given a beat whose harvest recorded the focus box its assertion ringed; beat 1: its row renders → the schematic cell and the proof cell are aimed by ONE camera at the same region of the same page, so the drawing and the photograph can never frame different things; beat 2: you read the words that caption them → both sides carry that beat and no other — the drawing derived from and labelled with its When → Then, the row's text cell showing the same sentence — while the Given row stays whole-page and uncaptioned on both sides" data-viz-hash="0dabc5173cf230ab" data-viz-archetype="ui-mirror" data-viz-kind="wireframe" data-viz-layout="0e868f122cbcf563" data-viz-kit="mirror-13" data-viz-beats="2" data-viz-frames="3" data-viz-phases="-0.44 -2.65 -4.85" data-viz-subphases="-0.44 -2.65|-2.65 -4.85" data-viz-cardspots=";540,214.5,360,199.2|540,214.5,360,199.2;30.4,167.9,360,246.8"><style>.vz0dabc5170e86 .wf0{animation:v0dabc5170e86f0 calc(5.5s / var(--spd, 1)) infinite}@keyframes v0dabc5170e86f0{0%{opacity:1}100%{opacity:1}}.vz0dabc5170e86 .wf1{animation:v0dabc5170e86f1 calc(5.5s / var(--spd, 1)) infinite}@keyframes v0dabc5170e86f1{0%{opacity:0}10%{opacity:0}30%{opacity:1}70%{opacity:1}70.1%{opacity:0}100%{opacity:0}}.vz0dabc5170e86 .wf2{animation:v0dabc5170e86f2 calc(5.5s / var(--spd, 1)) infinite}@keyframes v0dabc5170e86f2{0%{opacity:0}50%{opacity:0}70%{opacity:1}96.9%{opacity:1}97%{opacity:0}100%{opacity:0}}</style><rect x="0.5" y="0.5" width="599" height="374" rx="6" fill="var(--paper)" stroke="var(--line2)" stroke-width="1"/><g class="wf0"><rect x="1" y="1" width="598" height="373" rx="5.5" fill="var(--paper)"/><rect x="8.8" y="34.6" width="582.5" height="307.1" rx="3.7" fill="var(--paper)" stroke="var(--hair)" stroke-width="0.8"/><rect x="17.9" y="61.3" width="564.2" height="306.7" rx="3.7" fill="none" stroke="var(--hair)" stroke-width="0.8"/><rect x="18.3" y="209.6" width="563.3" height="157.5" rx="4" fill="var(--paper)" stroke="var(--hair)" stroke-width="0.8"/><rect x="18.3" y="73.3" width="563.3" height="136.3" rx="4" fill="var(--canvas)" stroke="var(--hair)" stroke-width="0.8"/><rect x="157.1" y="73.3" width="212.5" height="136.3" rx="4" fill="var(--canvas)" stroke="var(--line3)" stroke-width="0.8"/><rect x="369.2" y="73.3" width="212.5" height="136.3" rx="4" fill="var(--canvas)" stroke="var(--hair)" stroke-width="0.8"/><rect x="157.1" y="230.8" width="212.5" height="136.3" rx="4" fill="var(--paper)" stroke="var(--line3)" stroke-width="0.8"/><rect x="369.2" y="230.8" width="212.5" height="136.3" rx="4" fill="var(--paper)" stroke="var(--hair)" stroke-width="0.8"/><rect x="373.8" y="77.5" width="203.8" height="127.5" rx="1.5" fill="var(--wash)" stroke="var(--hair)" stroke-width="0.8"/><rect x="373.8" y="235.4" width="203.8" height="127.5" rx="1.5" fill="var(--wash)" stroke="var(--hair)" stroke-width="0.8"/><rect x="161.3" y="77.9" width="203.3" height="127.1" rx="3" fill="var(--wash)" stroke="var(--hair)" stroke-width="0.8"/><rect x="161.3" y="235.4" width="203.3" height="127.1" rx="3" fill="var(--wash)" stroke="var(--hair)" stroke-width="0.8"/><rect x="374.2" y="77.9" width="202.9" height="126.7" rx="3" fill="var(--wash)" stroke="var(--hair)" stroke-width="0.8"/><rect x="374.2" y="235.8" width="202.9" height="126.7" rx="3" fill="var(--wash)" stroke="var(--hair)" stroke-width="0.8"/><rect x="18.3" y="210" width="138.3" height="157.1" rx="4" fill="none" stroke="var(--line3)" stroke-width="0.8"/><rect x="18.3" y="73.3" width="138.3" height="136.3" rx="4" fill="none" stroke="var(--line3)" stroke-width="0.8"/><rect x="0" y="0" width="600" height="25.8" rx="4" fill="var(--paper)" stroke="var(--line3)" stroke-width="0.8"/><rect x="0" y="350.4" width="600" height="24.6" rx="4" fill="var(--paper)" stroke="var(--hair)" stroke-width="0.8"/><rect x="157.1" y="210" width="424.6" height="20.8" rx="4" fill="var(--paper)" stroke="var(--line3)" stroke-width="0.8"/><rect x="44.2" y="280.8" width="103.8" height="38.8" rx="4" fill="none" stroke="var(--hair)" stroke-width="0.8"/><text x="62.1" y="50.8" font-size="7" font-family="var(--sans)" fill="var(--ink)" font-weight="600">One card per screen, not a row of cells</text><rect x="157.1" y="61.7" width="212.5" height="11.3" rx="3" fill="none" stroke="var(--line3)" stroke-width="0.9"/><text x="161.5" y="68.9" font-size="4.6" font-family="var(--mono)" fill="var(--ink-3)">SCHEMATIC</text><text x="373.6" y="68.9" font-size="4.6" font-family="var(--mono)" fill="var(--ink-3)">PROOF</text><rect x="178.8" y="214.6" width="167.9" height="11.3" rx="5.7" fill="var(--wash)" stroke="var(--line2)" stroke-width="0.9"/><rect x="349.6" y="214.6" width="167.9" height="11.3" rx="5.7" fill="var(--wash)" stroke="var(--line2)" stroke-width="0.9"/><rect x="18.3" y="61.7" width="138.3" height="11.3" rx="3" fill="none" stroke="var(--line3)" stroke-width="0.9"/><text x="22.7" y="68.9" font-size="4.6" font-family="var(--mono)" fill="var(--ink-3)">BEHAVIOR</text><text x="262.8" y="219.4" font-size="4.8" font-family="var(--sans)" fill="var(--ink)" text-anchor="middle" font-weight="600">before</text><text x="433.6" y="219.4" font-size="4.8" font-family="var(--sans)" fill="var(--ai)" text-anchor="middle">then · exactly one card per screen appears — its</text><rect x="415.4" y="6.3" width="64.6" height="12.5" rx="6.3" fill="var(--sumi)" stroke="var(--line3)" stroke-width="0.9"/><text x="447.7" y="14.1" font-size="4.6" font-family="var(--sans)" fill="var(--paper)" text-anchor="middle">▶ Run all in background</text><text x="161.3" y="364.1" font-size="4" font-family="var(--mono)" fill="var(--ink)">READING A REQUIREMENT AND ITS PROOF</text><text x="527.5" y="364.1" font-size="4" font-family="var(--mono)" fill="var(--ink)">WHAT THE BOARD REFUSES TO OWN</text><rect x="532.1" y="43.8" width="29.2" height="11.7" rx="5.9" fill="var(--paper)" stroke="var(--line2)" stroke-width="0.9"/><text x="546.7" y="51.4" font-size="5" font-family="var(--sans)" fill="var(--ink)" text-anchor="middle">Run</text><rect x="561.7" y="6.3" width="26.7" height="12.5" rx="6.3" fill="var(--paper)" stroke="var(--line2)" stroke-width="0.9"/><text x="575.1" y="14.1" font-size="4.6" font-family="var(--sans)" fill="var(--ink)" text-anchor="middle">Close</text><rect x="484.6" y="6.7" width="26.7" height="11.7" rx="5.9" fill="var(--wash)" stroke="var(--line2)" stroke-width="0.9"/><text x="498" y="14.1" font-size="4.6" font-family="var(--sans)" fill="var(--ink)" text-anchor="middle">Focus</text><rect x="28.3" y="44.6" width="29.6" height="9.6" rx="4.8" fill="var(--wash)" stroke="var(--koke-line)" stroke-width="0.9"/><text x="32.9" y="51" font-size="4.6" font-family="var(--sans)" fill="var(--koke)">✓ Passed</text><rect x="532.9" y="6.7" width="23.8" height="11.7" rx="5.9" fill="var(--wash)" stroke="var(--line3)" stroke-width="0.9"/><text x="544.8" y="14.1" font-size="4.6" font-family="var(--sans)" fill="var(--ink-3)" text-anchor="middle">Flow</text><rect x="511.3" y="6.7" width="21.3" height="11.7" rx="5.9" fill="var(--wash)" stroke="var(--line3)" stroke-width="0.9"/><text x="522" y="14.1" font-size="4.6" font-family="var(--sans)" fill="var(--ink-3)" text-anchor="middle">List</text><g opacity="0.28"><rect x="496.3" y="45" width="24.2" height="8.8" rx="1.5" fill="var(--paper)" stroke="var(--line2)" stroke-width="1"/><rect x="500.3" y="47.4" width="12.1" height="4" rx="3" fill="var(--line2)"/></g><text x="35" y="364.1" font-size="4" font-family="var(--mono)" fill="var(--ink)">THE BOARD'S SHAPE</text><text x="394.2" y="364.1" font-size="4" font-family="var(--mono)" fill="var(--ink)">COMPUTED TRUTH</text><rect x="565.8" y="44.2" width="16.3" height="10.4" rx="5.2" fill="var(--paper)" stroke="var(--line2)" stroke-width="0.9"/><text x="573.9" y="51.5" font-size="6.3" font-family="var(--sans)" fill="var(--ink)" text-anchor="middle">⋯</text><text x="11.7" y="11.8" font-size="5.5" font-family="var(--sans)" fill="var(--ink)" font-weight="600">Board</text><g opacity="0.35"><rect x="8.8" y="356.7" width="12.5" height="12.5" rx="6.3" fill="var(--wash)" stroke="var(--line2)" stroke-width="0.9"/><text x="15.1" y="364.5" font-size="4.6" font-family="var(--mono)" fill="var(--ink-2)" text-anchor="middle">‹</text></g><rect x="83.3" y="356.7" width="12.5" height="12.5" rx="6.3" fill="var(--wash)" stroke="var(--line3)" stroke-width="0.9"/><text x="89.6" y="364.5" font-size="4.6" font-family="var(--mono)" fill="var(--ink)" text-anchor="middle">R1</text><rect x="97.9" y="356.7" width="12.5" height="12.5" rx="6.3" fill="var(--wash)" stroke="var(--koke-line)" stroke-width="0.9"/><text x="104.2" y="364.5" font-size="4.6" font-family="var(--mono)" fill="var(--koke)" text-anchor="middle">R9</text><rect x="112.5" y="356.7" width="12.5" height="12.5" rx="6.3" fill="var(--wash)" stroke="var(--koke-line)" stroke-width="0.9"/><text x="118.8" y="364.5" font-size="4.6" font-family="var(--mono)" fill="var(--koke)" text-anchor="middle" textLength="6.5" lengthAdjust="spacingAndGlyphs">R16</text><rect x="127.1" y="356.7" width="12.5" height="12.5" rx="6.3" fill="var(--wash)" stroke="var(--koke-line)" stroke-width="0.9"/><text x="133.4" y="364.5" font-size="4.6" font-family="var(--mono)" fill="var(--koke)" text-anchor="middle" textLength="6.5" lengthAdjust="spacingAndGlyphs">R17</text><rect x="257.9" y="356.7" width="12.5" height="12.5" rx="6.3" fill="var(--wash)" stroke="var(--koke-line)" stroke-width="0.9"/><text x="264.2" y="364.5" font-size="4.6" font-family="var(--mono)" fill="var(--koke)" text-anchor="middle">R2</text><rect x="272.5" y="356.7" width="12.5" height="12.5" rx="6.3" fill="var(--wash)" stroke="var(--koke-line)" stroke-width="0.9"/><text x="278.8" y="364.5" font-size="4.6" font-family="var(--mono)" fill="var(--koke)" text-anchor="middle">R3</text><rect x="287.1" y="356.7" width="12.5" height="12.5" rx="6.3" fill="var(--wash)" stroke="var(--koke-line)" stroke-width="0.9"/><text x="293.4" y="364.5" font-size="4.6" font-family="var(--mono)" fill="var(--koke)" text-anchor="middle" textLength="6.5" lengthAdjust="spacingAndGlyphs">R13</text><rect x="301.7" y="356.7" width="12.5" height="12.5" rx="6.3" fill="var(--wash)" stroke="var(--koke-line)" stroke-width="0.9"/><text x="308" y="364.5" font-size="4.6" font-family="var(--mono)" fill="var(--koke)" text-anchor="middle" textLength="6.5" lengthAdjust="spacingAndGlyphs">R14</text><rect x="316.3" y="356.7" width="12.5" height="12.5" rx="6.3" fill="var(--wash)" stroke="var(--koke-line)" stroke-width="0.9"/><text x="322.6" y="364.5" font-size="4.6" font-family="var(--mono)" fill="var(--koke)" text-anchor="middle" textLength="6.5" lengthAdjust="spacingAndGlyphs">R18</text><rect x="330.8" y="356.7" width="12.5" height="12.5" rx="6.3" fill="var(--wash)" stroke="var(--koke-line)" stroke-width="0.9"/><text x="337.1" y="364.5" font-size="4.6" font-family="var(--mono)" fill="var(--koke)" text-anchor="middle" textLength="6.5" lengthAdjust="spacingAndGlyphs">R19</text><rect x="345.4" y="356.7" width="12.5" height="12.5" rx="6.3" fill="var(--wash)" stroke="var(--koke-line)" stroke-width="0.9"/><text x="351.7" y="364.5" font-size="4.6" font-family="var(--mono)" fill="var(--koke)" text-anchor="middle" textLength="6.5" lengthAdjust="spacingAndGlyphs">R20</text><rect x="360" y="356.7" width="12.5" height="12.5" rx="6.3" fill="var(--wash)" stroke="var(--koke-line)" stroke-width="0.9"/><text x="366.3" y="364.5" font-size="4.6" font-family="var(--mono)" fill="var(--koke)" text-anchor="middle" textLength="6.5" lengthAdjust="spacingAndGlyphs">R21</text><rect x="434.6" y="356.7" width="12.5" height="12.5" rx="6.3" fill="var(--wash)" stroke="var(--koke-line)" stroke-width="0.9"/><text x="440.9" y="364.5" font-size="4.6" font-family="var(--mono)" fill="var(--koke)" text-anchor="middle">R4</text><rect x="449.2" y="356.7" width="12.5" height="12.5" rx="6.3" fill="var(--wash)" stroke="var(--koke-line)" stroke-width="0.9"/><text x="455.5" y="364.5" font-size="4.6" font-family="var(--mono)" fill="var(--koke)" text-anchor="middle">R5</text><rect x="463.8" y="356.7" width="12.5" height="12.5" rx="6.3" fill="var(--wash)" stroke="var(--koke-line)" stroke-width="0.9"/><text x="470.1" y="364.5" font-size="4.6" font-family="var(--mono)" fill="var(--koke)" text-anchor="middle">R6</text><rect x="478.3" y="356.7" width="12.5" height="12.5" rx="6.3" fill="var(--wash)" stroke="var(--koke-line)" stroke-width="0.9"/><text x="484.6" y="364.5" font-size="4.6" font-family="var(--mono)" fill="var(--koke)" text-anchor="middle">R8</text><rect x="492.9" y="356.7" width="12.5" height="12.5" rx="6.3" fill="var(--wash)" stroke="var(--koke-line)" stroke-width="0.9"/><text x="499.2" y="364.5" font-size="4.6" font-family="var(--mono)" fill="var(--koke)" text-anchor="middle" textLength="6.5" lengthAdjust="spacingAndGlyphs">R22</text><rect x="578.8" y="356.7" width="12.5" height="12.5" rx="6.3" fill="var(--wash)" stroke="var(--line2)" stroke-width="0.9"/><text x="585.1" y="364.5" font-size="4.6" font-family="var(--mono)" fill="var(--ink-2)" text-anchor="middle">›</text><text x="44.2" y="264" font-size="7" font-family="var(--sans)" fill="var(--ink-3)">When</text><rect x="437.5" y="45.4" width="19.2" height="7.9" rx="4" fill="var(--wash)" stroke="var(--line3)" stroke-width="0.9"/><text x="447.1" y="50.7" font-size="4" font-family="var(--mono)" fill="var(--ink)" text-anchor="middle">step</text><rect x="418.3" y="45.4" width="18.8" height="7.9" rx="4" fill="var(--wash)" stroke="var(--line2)" stroke-width="0.9"/><text x="427.7" y="50.7" font-size="4" font-family="var(--mono)" fill="var(--ink-3)" text-anchor="middle">auto</text><g opacity="0.4"><rect x="162.9" y="214.2" width="11.7" height="11.7" rx="5.9" fill="var(--paper)" stroke="var(--line2)" stroke-width="0.9"/><text x="168.8" y="222.2" font-size="6.3" font-family="var(--sans)" fill="var(--ink-4)" text-anchor="middle">‹</text></g><rect x="522.1" y="214.2" width="11.7" height="11.7" rx="5.9" fill="var(--paper)" stroke="var(--line2)" stroke-width="0.9"/><text x="528" y="222.2" font-size="6.3" font-family="var(--sans)" fill="var(--ink)" text-anchor="middle">›</text><rect x="556.3" y="216.7" width="19.2" height="7.1" rx="3.6" fill="var(--wash)" stroke="var(--line2)" stroke-width="0.9"/><text x="560.1" y="221.7" font-size="4.2" font-family="var(--mono)" fill="var(--ink-3)">WHEN</text><text x="465.8" y="50.8" font-size="4" font-family="var(--mono)" fill="var(--ink-3)">PLAY SPEED</text><rect x="27.9" y="257.1" width="10.8" height="10.8" rx="5.4" fill="var(--paper)" stroke="var(--line3)" stroke-width="0.9"/><text x="28.7" y="264.1" font-size="4.8" font-family="var(--mono)" fill="var(--ink)">1</text><text x="44.2" y="137.7" font-size="5.5" font-family="var(--sans)" fill="var(--ink-3)" textLength="14.6" lengthAdjust="spacingAndGlyphs">Given</text><text x="538.3" y="221.6" font-size="4.8" font-family="var(--mono)" fill="var(--ink)">1 / 2</text><text x="11.7" y="18.7" font-size="4" font-family="var(--mono)" fill="var(--ink-4)">Core · /</text><text x="44.2" y="291.9" font-size="5.5" font-family="var(--sans)" fill="var(--ai)" font-weight="600">Then</text><text x="404.2" y="50.8" font-size="4" font-family="var(--mono)" fill="var(--ink-3)">PLAY</text><text x="17.9" y="50.8" font-size="4.8" font-family="var(--mono)" fill="var(--ink-3)">R1</text></g><g class="wf1"><rect x="1" y="1" width="598" height="373" rx="5.5" fill="var(--paper)"/><rect x="-17.1" y="113.3" width="650" height="406.3" rx="3" fill="var(--wash)" stroke="var(--hair)" stroke-width="0.8"/><rect x="195.8" y="113.3" width="648.8" height="405.4" rx="3" fill="var(--wash)" stroke="var(--hair)" stroke-width="0.8"/><rect x="8.8" y="34.6" width="582.5" height="307.1" rx="3.7" fill="var(--paper)" stroke="var(--hair)" stroke-width="0.8"/><rect x="17.9" y="29.2" width="564.2" height="306.3" rx="3.7" fill="none" stroke="var(--hair)" stroke-width="0.8"/><rect x="18.3" y="177.5" width="563.3" height="157.5" rx="4" fill="var(--paper)" stroke="var(--hair)" stroke-width="0.8"/><rect x="18.3" y="41.3" width="563.3" height="136.3" rx="4" fill="var(--canvas)" stroke="var(--hair)" stroke-width="0.8"/><rect x="157.1" y="177.9" width="424.6" height="157.1" rx="4" fill="none" stroke="var(--hair)" stroke-width="0.8"/><rect x="157.1" y="198.8" width="424.6" height="135.8" rx="4" fill="none" stroke="var(--hair)" stroke-width="0.8"/><rect x="157.1" y="41.3" width="212.5" height="136.3" rx="4" fill="var(--canvas)" stroke="var(--line3)" stroke-width="0.8"/><rect x="369.2" y="41.3" width="212.5" height="136.3" rx="4" fill="var(--canvas)" stroke="var(--hair)" stroke-width="0.8"/><rect x="157.1" y="198.8" width="212.5" height="135.8" rx="4" fill="var(--paper)" stroke="var(--line3)" stroke-width="0.8"/><rect x="369.2" y="198.8" width="212.5" height="135.8" rx="4" fill="var(--paper)" stroke="var(--hair)" stroke-width="0.8"/><rect x="373.8" y="45.4" width="203.8" height="127.5" rx="1.5" fill="var(--wash)" stroke="var(--hair)" stroke-width="0.8"/><rect x="373.8" y="203.3" width="203.8" height="127.1" rx="4" fill="none" stroke="var(--hair)" stroke-width="0.8"/><rect x="161.3" y="203.3" width="203.3" height="127.1" rx="4" fill="none" stroke="var(--hair)" stroke-width="0.8"/><rect x="161.3" y="45.8" width="203.3" height="127.1" rx="3" fill="var(--wash)" stroke="var(--hair)" stroke-width="0.8"/><rect x="374.2" y="45.8" width="202.9" height="126.7" rx="3" fill="var(--wash)" stroke="var(--hair)" stroke-width="0.8"/><rect x="374.2" y="203.8" width="202.9" height="126.3" rx="4" fill="none" stroke="var(--hair)" stroke-width="0.8"/><rect x="18.3" y="177.9" width="138.3" height="157.1" rx="4" fill="none" stroke="var(--line3)" stroke-width="0.8"/><rect x="18.3" y="41.3" width="138.3" height="136.3" rx="4" fill="none" stroke="var(--line3)" stroke-width="0.8"/><rect x="0" y="0" width="600" height="25.8" rx="4" fill="var(--paper)" stroke="var(--line3)" stroke-width="0.8"/><rect x="0" y="350.4" width="600" height="24.6" rx="4" fill="var(--paper)" stroke="var(--hair)" stroke-width="0.8"/><rect x="157.1" y="177.9" width="424.6" height="20.8" rx="4" fill="var(--paper)" stroke="var(--line3)" stroke-width="0.8"/><rect x="44.2" y="225" width="103.8" height="62.9" rx="4" fill="none" stroke="var(--hair)" stroke-width="0.8"/><rect x="44.2" y="248.8" width="103.8" height="38.8" rx="4" fill="none" stroke="var(--hair)" stroke-width="0.8"/><text x="62.1" y="50.8" font-size="7" font-family="var(--sans)" fill="var(--ink)" font-weight="600">One card per screen, not a row of cells</text><rect x="157.1" y="29.6" width="212.5" height="11.3" rx="3" fill="none" stroke="var(--line3)" stroke-width="0.9"/><text x="161.5" y="36.8" font-size="4.6" font-family="var(--mono)" fill="var(--ink-3)">SCHEMATIC</text><text x="373.6" y="36.8" font-size="4.6" font-family="var(--mono)" fill="var(--ink-3)">PROOF</text><rect x="44.2" y="225" width="103.8" height="19.6" rx="4" fill="none" stroke="var(--hair)" stroke-width="0.8"/><rect x="178.8" y="182.5" width="167.9" height="11.3" rx="5.7" fill="var(--wash)" stroke="var(--line2)" stroke-width="0.9"/><rect x="349.6" y="182.5" width="167.9" height="11.3" rx="5.7" fill="var(--wash)" stroke="var(--line2)" stroke-width="0.9"/><rect x="18.3" y="29.6" width="138.3" height="11.3" rx="3" fill="none" stroke="var(--line3)" stroke-width="0.9"/><text x="22.7" y="36.8" font-size="4.6" font-family="var(--mono)" fill="var(--ink-3)">BEHAVIOR</text><rect x="415.4" y="6.3" width="64.6" height="12.5" rx="6.3" fill="var(--sumi)" stroke="var(--line3)" stroke-width="0.9"/><text x="447.7" y="14.1" font-size="4.6" font-family="var(--sans)" fill="var(--paper)" text-anchor="middle">▶ Run all in background</text><text x="161.3" y="364.1" font-size="4" font-family="var(--mono)" fill="var(--ink)">READING A REQUIREMENT AND ITS PROOF</text><text x="527.5" y="364.1" font-size="4" font-family="var(--mono)" fill="var(--ink)">WHAT THE BOARD REFUSES TO OWN</text><rect x="532.1" y="43.8" width="29.2" height="11.7" rx="5.9" fill="var(--paper)" stroke="var(--line2)" stroke-width="0.9"/><text x="546.7" y="51.4" font-size="5" font-family="var(--sans)" fill="var(--ink)" text-anchor="middle">Run</text><rect x="561.7" y="6.3" width="26.7" height="12.5" rx="6.3" fill="var(--paper)" stroke="var(--line2)" stroke-width="0.9"/><text x="575.1" y="14.1" font-size="4.6" font-family="var(--sans)" fill="var(--ink)" text-anchor="middle">Close</text><rect x="484.6" y="6.7" width="26.7" height="11.7" rx="5.9" fill="var(--wash)" stroke="var(--line2)" stroke-width="0.9"/><text x="498" y="14.1" font-size="4.6" font-family="var(--sans)" fill="var(--ink)" text-anchor="middle">Focus</text><rect x="28.3" y="44.6" width="29.6" height="9.6" rx="4.8" fill="var(--wash)" stroke="var(--koke-line)" stroke-width="0.9"/><text x="32.9" y="51" font-size="4.6" font-family="var(--sans)" fill="var(--koke)">✓ Passed</text><rect x="532.9" y="6.7" width="23.8" height="11.7" rx="5.9" fill="var(--wash)" stroke="var(--line3)" stroke-width="0.9"/><text x="544.8" y="14.1" font-size="4.6" font-family="var(--sans)" fill="var(--ink-3)" text-anchor="middle">Flow</text><rect x="511.3" y="6.7" width="21.3" height="11.7" rx="5.9" fill="var(--wash)" stroke="var(--line3)" stroke-width="0.9"/><text x="522" y="14.1" font-size="4.6" font-family="var(--sans)" fill="var(--ink-3)" text-anchor="middle">List</text><g opacity="0.28"><rect x="496.3" y="45" width="24.2" height="8.8" rx="1.5" fill="var(--paper)" stroke="var(--line2)" stroke-width="1"/><rect x="500.3" y="47.4" width="12.1" height="4" rx="3" fill="var(--line2)"/></g><text x="35" y="364.1" font-size="4" font-family="var(--mono)" fill="var(--ink)">THE BOARD'S SHAPE</text><text x="394.2" y="364.1" font-size="4" font-family="var(--mono)" fill="var(--ink)">COMPUTED TRUTH</text><rect x="565.8" y="44.2" width="16.3" height="10.4" rx="5.2" fill="var(--paper)" stroke="var(--line2)" stroke-width="0.9"/><text x="573.9" y="51.5" font-size="6.3" font-family="var(--sans)" fill="var(--ink)" text-anchor="middle">⋯</text><text x="11.7" y="11.8" font-size="5.5" font-family="var(--sans)" fill="var(--ink)" font-weight="600">Board</text><rect x="287.1" y="356.7" width="12.5" height="12.5" rx="6.3" fill="var(--wash)" stroke="var(--koke-line)" stroke-width="0.9"/><text x="293.4" y="364.5" font-size="4.6" font-family="var(--mono)" fill="var(--koke)" text-anchor="middle" textLength="6.5" lengthAdjust="spacingAndGlyphs">R13</text><rect x="301.7" y="356.7" width="12.5" height="12.5" rx="6.3" fill="var(--wash)" stroke="var(--koke-line)" stroke-width="0.9"/><text x="308" y="364.5" font-size="4.6" font-family="var(--mono)" fill="var(--koke)" text-anchor="middle" textLength="6.5" lengthAdjust="spacingAndGlyphs">R14</text><rect x="272.5" y="356.7" width="12.5" height="12.5" rx="6.3" fill="var(--wash)" stroke="var(--koke-line)" stroke-width="0.9"/><text x="278.8" y="364.5" font-size="4.6" font-family="var(--mono)" fill="var(--koke)" text-anchor="middle">R3</text><rect x="316.3" y="356.7" width="12.5" height="12.5" rx="6.3" fill="var(--wash)" stroke="var(--koke-line)" stroke-width="0.9"/><text x="322.6" y="364.5" font-size="4.6" font-family="var(--mono)" fill="var(--koke)" text-anchor="middle" textLength="6.5" lengthAdjust="spacingAndGlyphs">R18</text><rect x="257.9" y="356.7" width="12.5" height="12.5" rx="6.3" fill="var(--wash)" stroke="var(--koke-line)" stroke-width="0.9"/><text x="264.2" y="364.5" font-size="4.6" font-family="var(--mono)" fill="var(--koke)" text-anchor="middle">R2</text><rect x="330.8" y="356.7" width="12.5" height="12.5" rx="6.3" fill="var(--wash)" stroke="var(--koke-line)" stroke-width="0.9"/><text x="337.1" y="364.5" font-size="4.6" font-family="var(--mono)" fill="var(--koke)" text-anchor="middle" textLength="6.5" lengthAdjust="spacingAndGlyphs">R19</text><rect x="345.4" y="356.7" width="12.5" height="12.5" rx="6.3" fill="var(--wash)" stroke="var(--koke-line)" stroke-width="0.9"/><text x="351.7" y="364.5" font-size="4.6" font-family="var(--mono)" fill="var(--koke)" text-anchor="middle" textLength="6.5" lengthAdjust="spacingAndGlyphs">R20</text><rect x="360" y="356.7" width="12.5" height="12.5" rx="6.3" fill="var(--wash)" stroke="var(--koke-line)" stroke-width="0.9"/><text x="366.3" y="364.5" font-size="4.6" font-family="var(--mono)" fill="var(--koke)" text-anchor="middle" textLength="6.5" lengthAdjust="spacingAndGlyphs">R21</text><rect x="434.6" y="356.7" width="12.5" height="12.5" rx="6.3" fill="var(--wash)" stroke="var(--koke-line)" stroke-width="0.9"/><text x="440.9" y="364.5" font-size="4.6" font-family="var(--mono)" fill="var(--koke)" text-anchor="middle">R4</text><rect x="449.2" y="356.7" width="12.5" height="12.5" rx="6.3" fill="var(--wash)" stroke="var(--koke-line)" stroke-width="0.9"/><text x="455.5" y="364.5" font-size="4.6" font-family="var(--mono)" fill="var(--koke)" text-anchor="middle">R5</text><rect x="463.8" y="356.7" width="12.5" height="12.5" rx="6.3" fill="var(--wash)" stroke="var(--koke-line)" stroke-width="0.9"/><text x="470.1" y="364.5" font-size="4.6" font-family="var(--mono)" fill="var(--koke)" text-anchor="middle">R6</text><rect x="478.3" y="356.7" width="12.5" height="12.5" rx="6.3" fill="var(--wash)" stroke="var(--koke-line)" stroke-width="0.9"/><text x="484.6" y="364.5" font-size="4.6" font-family="var(--mono)" fill="var(--koke)" text-anchor="middle">R8</text><rect x="492.9" y="356.7" width="12.5" height="12.5" rx="6.3" fill="var(--wash)" stroke="var(--koke-line)" stroke-width="0.9"/><text x="499.2" y="364.5" font-size="4.6" font-family="var(--mono)" fill="var(--koke)" text-anchor="middle" textLength="6.5" lengthAdjust="spacingAndGlyphs">R22</text><rect x="127.1" y="356.7" width="12.5" height="12.5" rx="6.3" fill="var(--wash)" stroke="var(--koke-line)" stroke-width="0.9"/><text x="133.4" y="364.5" font-size="4.6" font-family="var(--mono)" fill="var(--koke)" text-anchor="middle" textLength="6.5" lengthAdjust="spacingAndGlyphs">R17</text><rect x="112.5" y="356.7" width="12.5" height="12.5" rx="6.3" fill="var(--wash)" stroke="var(--koke-line)" stroke-width="0.9"/><text x="118.8" y="364.5" font-size="4.6" font-family="var(--mono)" fill="var(--koke)" text-anchor="middle" textLength="6.5" lengthAdjust="spacingAndGlyphs">R16</text><rect x="97.9" y="356.7" width="12.5" height="12.5" rx="6.3" fill="var(--wash)" stroke="var(--koke-line)" stroke-width="0.9"/><text x="104.2" y="364.5" font-size="4.6" font-family="var(--mono)" fill="var(--koke)" text-anchor="middle">R9</text><rect x="83.3" y="356.7" width="12.5" height="12.5" rx="6.3" fill="var(--wash)" stroke="var(--line3)" stroke-width="0.9"/><text x="89.6" y="364.5" font-size="4.6" font-family="var(--mono)" fill="var(--ink)" text-anchor="middle">R1</text><g opacity="0.35"><rect x="8.8" y="356.7" width="12.5" height="12.5" rx="6.3" fill="var(--wash)" stroke="var(--line2)" stroke-width="0.9"/><text x="15.1" y="364.5" font-size="4.6" font-family="var(--mono)" fill="var(--ink-2)" text-anchor="middle">‹</text></g><rect x="578.8" y="356.7" width="12.5" height="12.5" rx="6.3" fill="var(--wash)" stroke="var(--line2)" stroke-width="0.9"/><text x="585.1" y="364.5" font-size="4.6" font-family="var(--mono)" fill="var(--ink-2)" text-anchor="middle">›</text><rect x="437.5" y="45.4" width="19.2" height="7.9" rx="4" fill="var(--wash)" stroke="var(--line3)" stroke-width="0.9"/><text x="447.1" y="50.7" font-size="4" font-family="var(--mono)" fill="var(--ink)" text-anchor="middle">step</text><rect x="418.3" y="45.4" width="18.8" height="7.9" rx="4" fill="var(--wash)" stroke="var(--line2)" stroke-width="0.9"/><text x="427.7" y="50.7" font-size="4" font-family="var(--mono)" fill="var(--ink-3)" text-anchor="middle">auto</text><g opacity="0.4"><rect x="162.9" y="182.1" width="11.7" height="11.7" rx="5.9" fill="var(--paper)" stroke="var(--line2)" stroke-width="0.9"/></g><rect x="522.1" y="182.1" width="11.7" height="11.7" rx="5.9" fill="var(--paper)" stroke="var(--line2)" stroke-width="0.9"/><rect x="556.3" y="184.6" width="19.2" height="7.1" rx="3.6" fill="var(--wash)" stroke="var(--line2)" stroke-width="0.9"/><text x="465.8" y="50.8" font-size="4" font-family="var(--mono)" fill="var(--ink-3)">PLAY SPEED</text><rect x="27.9" y="225" width="10.8" height="10.8" rx="5.4" fill="var(--paper)" stroke="var(--line3)" stroke-width="0.9"/><text x="44.2" y="105.6" font-size="5.5" font-family="var(--sans)" fill="var(--ink-3)" textLength="14.6" lengthAdjust="spacingAndGlyphs">Given</text><text x="11.7" y="18.7" font-size="4" font-family="var(--mono)" fill="var(--ink-4)">Core · /</text><text x="404.2" y="50.8" font-size="4" font-family="var(--mono)" fill="var(--ink-3)">PLAY</text><text x="17.9" y="50.8" font-size="4.8" font-family="var(--mono)" fill="var(--ink-3)">R1</text><rect x="0" y="0" width="600" height="375" fill="var(--ink)" opacity="0.12"/><rect x="15.2" y="174.8" width="144.6" height="163.4" rx="3.5" fill="none" stroke="var(--paper)" stroke-width="1.3" opacity="0.92"/><rect x="16.2" y="175.8" width="142.5" height="161.3" rx="2.5" fill="none" stroke="var(--ai)" stroke-width="0.8"/><text x="27.1" y="257.9" font-size="4" font-family="var(--sans)" fill="var(--ink)">1 When you open the board's home Then exactly on</text><rect x="154" y="174.8" width="430.9" height="27.1" rx="3.5" fill="none" stroke="var(--paper)" stroke-width="1.3" opacity="0.92"/><rect x="155" y="175.8" width="428.8" height="25" rx="2.5" fill="none" stroke="var(--ai)" stroke-width="0.8"/><text x="163" y="190" font-size="4.8" font-family="var(--sans)" fill="var(--ink)">‹ before then · exactly one card per screen appe</text><rect x="12.5" y="90.1" width="150" height="83" rx="5" fill="var(--ink)" opacity="0.1"/><rect x="12.5" y="87.6" width="150" height="83" rx="5" fill="var(--paper)" stroke="var(--line2)" stroke-width="0.4"/><path d="M83.9 170.4 L87.5 174.1 L91 170.4 Z" fill="var(--paper)"/><path d="M83.9 170.4 L87.5 174.1 L91 170.4" fill="none" stroke="var(--line2)" stroke-width="0.4" stroke-linejoin="round"/><rect x="20" y="93.4" width="14.3" height="7.7" rx="1.7" fill="none" stroke="var(--line2)" stroke-width="0.4"/><text x="27.2" y="99.1" font-size="5" font-family="var(--mono)" fill="var(--ink-3)" text-anchor="middle" font-weight="600">R19</text><text x="20" y="112" font-size="5" font-family="var(--mono)" fill="var(--ai)" font-weight="600" letter-spacing="0.4">THEN</text><text x="37" y="112" font-size="7.1" font-family="var(--sans)" fill="var(--ink)" font-weight="600">the schematic cell and the proof</text><text x="37" y="121.9" font-size="7.1" font-family="var(--sans)" fill="var(--ink)" font-weight="600">cell are aimed by ONE camera at</text><text x="37" y="131.8" font-size="7.1" font-family="var(--sans)" fill="var(--ink)" font-weight="600">the same region of the same</text><text x="37" y="141.7" font-size="7.1" font-family="var(--sans)" fill="var(--ink)" font-weight="600">page, so the drawing and the</text><text x="37" y="151.7" font-size="7.1" font-family="var(--sans)" fill="var(--ink)" font-weight="600">photograph can never frame</text><text x="37" y="161.6" font-size="7.1" font-family="var(--sans)" fill="var(--ink)" font-weight="600">different things</text><path d="M98.8 159.7 l2.2 2.2 l4.2 -5.1" fill="none" stroke="var(--ok)" stroke-width="1.3" stroke-linecap="round" stroke-linejoin="round"/></g><g class="wf2"><rect x="1" y="1" width="598" height="373" rx="5.5" fill="var(--paper)"/><rect x="-17.1" y="113.3" width="650" height="406.3" rx="3" fill="var(--wash)" stroke="var(--hair)" stroke-width="0.8"/><rect x="195.8" y="113.3" width="648.8" height="405.4" rx="3" fill="var(--wash)" stroke="var(--hair)" stroke-width="0.8"/><rect x="8.8" y="34.6" width="582.5" height="307.1" rx="3.7" fill="var(--paper)" stroke="var(--hair)" stroke-width="0.8"/><rect x="17.9" y="29.2" width="564.2" height="306.3" rx="3.7" fill="none" stroke="var(--hair)" stroke-width="0.8"/><rect x="18.3" y="177.5" width="563.3" height="157.5" rx="4" fill="var(--paper)" stroke="var(--hair)" stroke-width="0.8"/><rect x="18.3" y="41.3" width="563.3" height="136.3" rx="4" fill="var(--canvas)" stroke="var(--hair)" stroke-width="0.8"/><rect x="157.1" y="41.3" width="212.5" height="136.3" rx="4" fill="var(--canvas)" stroke="var(--line3)" stroke-width="0.8"/><rect x="369.2" y="41.3" width="212.5" height="136.3" rx="4" fill="var(--canvas)" stroke="var(--hair)" stroke-width="0.8"/><rect x="157.1" y="198.8" width="212.5" height="135.8" rx="4" fill="var(--paper)" stroke="var(--line3)" stroke-width="0.8"/><rect x="369.2" y="198.8" width="212.5" height="135.8" rx="4" fill="var(--paper)" stroke="var(--hair)" stroke-width="0.8"/><rect x="373.8" y="45.4" width="203.8" height="127.5" rx="1.5" fill="var(--wash)" stroke="var(--hair)" stroke-width="0.8"/><rect x="373.8" y="203.3" width="203.8" height="127.1" rx="1.5" fill="var(--wash)" stroke="var(--hair)" stroke-width="0.8"/><rect x="161.3" y="45.8" width="203.3" height="127.1" rx="3" fill="var(--wash)" stroke="var(--hair)" stroke-width="0.8"/><rect x="374.2" y="45.8" width="202.9" height="126.7" rx="3" fill="var(--wash)" stroke="var(--hair)" stroke-width="0.8"/><rect x="18.3" y="177.9" width="138.3" height="157.1" rx="4" fill="none" stroke="var(--line3)" stroke-width="0.8"/><rect x="18.3" y="41.3" width="138.3" height="136.3" rx="4" fill="none" stroke="var(--line3)" stroke-width="0.8"/><rect x="0" y="0" width="600" height="25.8" rx="4" fill="var(--paper)" stroke="var(--line3)" stroke-width="0.8"/><rect x="0" y="350.4" width="600" height="24.6" rx="4" fill="var(--paper)" stroke="var(--hair)" stroke-width="0.8"/><rect x="157.1" y="177.9" width="424.6" height="20.8" rx="4" fill="var(--paper)" stroke="var(--line3)" stroke-width="0.8"/><rect x="44.2" y="225" width="103.8" height="62.9" rx="4" fill="none" stroke="var(--hair)" stroke-width="0.8"/><rect x="44.2" y="248.8" width="103.8" height="38.8" rx="4" fill="none" stroke="var(--hair)" stroke-width="0.8"/><text x="62.1" y="50.8" font-size="7" font-family="var(--sans)" fill="var(--ink)" font-weight="600">One card per screen, not a row of cells</text><rect x="157.1" y="29.6" width="212.5" height="11.3" rx="3" fill="none" stroke="var(--line3)" stroke-width="0.9"/><text x="161.5" y="36.8" font-size="4.6" font-family="var(--mono)" fill="var(--ink-3)">SCHEMATIC</text><text x="373.6" y="36.8" font-size="4.6" font-family="var(--mono)" fill="var(--ink-3)">PROOF</text><rect x="44.2" y="225" width="103.8" height="19.6" rx="4" fill="none" stroke="var(--hair)" stroke-width="0.8"/><rect x="178.8" y="182.5" width="167.9" height="11.3" rx="5.7" fill="var(--wash)" stroke="var(--line2)" stroke-width="0.9"/><rect x="349.6" y="182.5" width="167.9" height="11.3" rx="5.7" fill="var(--wash)" stroke="var(--line2)" stroke-width="0.9"/><rect x="18.3" y="29.6" width="138.3" height="11.3" rx="3" fill="none" stroke="var(--line3)" stroke-width="0.9"/><text x="22.7" y="36.8" font-size="4.6" font-family="var(--mono)" fill="var(--ink-3)">BEHAVIOR</text><text x="262.8" y="187.3" font-size="4.8" font-family="var(--sans)" fill="var(--ink)" text-anchor="middle" font-weight="600">before</text><text x="433.6" y="187.3" font-size="4.8" font-family="var(--sans)" fill="var(--ai)" text-anchor="middle">then · exactly one card per screen appears — its</text><rect x="415.4" y="6.3" width="64.6" height="12.5" rx="6.3" fill="var(--sumi)" stroke="var(--line3)" stroke-width="0.9"/><text x="447.7" y="14.1" font-size="4.6" font-family="var(--sans)" fill="var(--paper)" text-anchor="middle">▶ Run all in background</text><text x="161.3" y="364.1" font-size="4" font-family="var(--mono)" fill="var(--ink)">READING A REQUIREMENT AND ITS PROOF</text><text x="527.5" y="364.1" font-size="4" font-family="var(--mono)" fill="var(--ink)">WHAT THE BOARD REFUSES TO OWN</text><rect x="532.1" y="43.8" width="29.2" height="11.7" rx="5.9" fill="var(--paper)" stroke="var(--line2)" stroke-width="0.9"/><text x="546.7" y="51.4" font-size="5" font-family="var(--sans)" fill="var(--ink)" text-anchor="middle">Run</text><rect x="561.7" y="6.3" width="26.7" height="12.5" rx="6.3" fill="var(--paper)" stroke="var(--line2)" stroke-width="0.9"/><text x="575.1" y="14.1" font-size="4.6" font-family="var(--sans)" fill="var(--ink)" text-anchor="middle">Close</text><rect x="484.6" y="6.7" width="26.7" height="11.7" rx="5.9" fill="var(--wash)" stroke="var(--line2)" stroke-width="0.9"/><text x="498" y="14.1" font-size="4.6" font-family="var(--sans)" fill="var(--ink)" text-anchor="middle">Focus</text><rect x="28.3" y="44.6" width="29.6" height="9.6" rx="4.8" fill="var(--wash)" stroke="var(--koke-line)" stroke-width="0.9"/><text x="32.9" y="51" font-size="4.6" font-family="var(--sans)" fill="var(--koke)">✓ Passed</text><rect x="532.9" y="6.7" width="23.8" height="11.7" rx="5.9" fill="var(--wash)" stroke="var(--line3)" stroke-width="0.9"/><text x="544.8" y="14.1" font-size="4.6" font-family="var(--sans)" fill="var(--ink-3)" text-anchor="middle">Flow</text><rect x="511.3" y="6.7" width="21.3" height="11.7" rx="5.9" fill="var(--wash)" stroke="var(--line3)" stroke-width="0.9"/><text x="522" y="14.1" font-size="4.6" font-family="var(--sans)" fill="var(--ink-3)" text-anchor="middle">List</text><g opacity="0.28"><rect x="496.3" y="45" width="24.2" height="8.8" rx="1.5" fill="var(--paper)" stroke="var(--line2)" stroke-width="1"/><rect x="500.3" y="47.4" width="12.1" height="4" rx="3" fill="var(--line2)"/></g><text x="35" y="364.1" font-size="4" font-family="var(--mono)" fill="var(--ink)">THE BOARD'S SHAPE</text><text x="394.2" y="364.1" font-size="4" font-family="var(--mono)" fill="var(--ink)">COMPUTED TRUTH</text><rect x="565.8" y="44.2" width="16.3" height="10.4" rx="5.2" fill="var(--paper)" stroke="var(--line2)" stroke-width="0.9"/><text x="573.9" y="51.5" font-size="6.3" font-family="var(--sans)" fill="var(--ink)" text-anchor="middle">⋯</text><text x="11.7" y="11.8" font-size="5.5" font-family="var(--sans)" fill="var(--ink)" font-weight="600">Board</text><rect x="83.3" y="356.7" width="12.5" height="12.5" rx="6.3" fill="var(--wash)" stroke="var(--line3)" stroke-width="0.9"/><text x="89.6" y="364.5" font-size="4.6" font-family="var(--mono)" fill="var(--ink)" text-anchor="middle">R1</text><rect x="97.9" y="356.7" width="12.5" height="12.5" rx="6.3" fill="var(--wash)" stroke="var(--koke-line)" stroke-width="0.9"/><text x="104.2" y="364.5" font-size="4.6" font-family="var(--mono)" fill="var(--koke)" text-anchor="middle">R9</text><rect x="112.5" y="356.7" width="12.5" height="12.5" rx="6.3" fill="var(--wash)" stroke="var(--koke-line)" stroke-width="0.9"/><text x="118.8" y="364.5" font-size="4.6" font-family="var(--mono)" fill="var(--koke)" text-anchor="middle" textLength="6.5" lengthAdjust="spacingAndGlyphs">R16</text><rect x="127.1" y="356.7" width="12.5" height="12.5" rx="6.3" fill="var(--wash)" stroke="var(--koke-line)" stroke-width="0.9"/><text x="133.4" y="364.5" font-size="4.6" font-family="var(--mono)" fill="var(--koke)" text-anchor="middle" textLength="6.5" lengthAdjust="spacingAndGlyphs">R17</text><rect x="257.9" y="356.7" width="12.5" height="12.5" rx="6.3" fill="var(--wash)" stroke="var(--koke-line)" stroke-width="0.9"/><text x="264.2" y="364.5" font-size="4.6" font-family="var(--mono)" fill="var(--koke)" text-anchor="middle">R2</text><rect x="272.5" y="356.7" width="12.5" height="12.5" rx="6.3" fill="var(--wash)" stroke="var(--koke-line)" stroke-width="0.9"/><text x="278.8" y="364.5" font-size="4.6" font-family="var(--mono)" fill="var(--koke)" text-anchor="middle">R3</text><rect x="287.1" y="356.7" width="12.5" height="12.5" rx="6.3" fill="var(--wash)" stroke="var(--koke-line)" stroke-width="0.9"/><text x="293.4" y="364.5" font-size="4.6" font-family="var(--mono)" fill="var(--koke)" text-anchor="middle" textLength="6.5" lengthAdjust="spacingAndGlyphs">R13</text><rect x="301.7" y="356.7" width="12.5" height="12.5" rx="6.3" fill="var(--wash)" stroke="var(--koke-line)" stroke-width="0.9"/><text x="308" y="364.5" font-size="4.6" font-family="var(--mono)" fill="var(--koke)" text-anchor="middle" textLength="6.5" lengthAdjust="spacingAndGlyphs">R14</text><rect x="316.3" y="356.7" width="12.5" height="12.5" rx="6.3" fill="var(--wash)" stroke="var(--koke-line)" stroke-width="0.9"/><text x="322.6" y="364.5" font-size="4.6" font-family="var(--mono)" fill="var(--koke)" text-anchor="middle" textLength="6.5" lengthAdjust="spacingAndGlyphs">R18</text><rect x="330.8" y="356.7" width="12.5" height="12.5" rx="6.3" fill="var(--wash)" stroke="var(--koke-line)" stroke-width="0.9"/><text x="337.1" y="364.5" font-size="4.6" font-family="var(--mono)" fill="var(--koke)" text-anchor="middle" textLength="6.5" lengthAdjust="spacingAndGlyphs">R19</text><rect x="345.4" y="356.7" width="12.5" height="12.5" rx="6.3" fill="var(--wash)" stroke="var(--koke-line)" stroke-width="0.9"/><text x="351.7" y="364.5" font-size="4.6" font-family="var(--mono)" fill="var(--koke)" text-anchor="middle" textLength="6.5" lengthAdjust="spacingAndGlyphs">R20</text><rect x="360" y="356.7" width="12.5" height="12.5" rx="6.3" fill="var(--wash)" stroke="var(--koke-line)" stroke-width="0.9"/><text x="366.3" y="364.5" font-size="4.6" font-family="var(--mono)" fill="var(--koke)" text-anchor="middle" textLength="6.5" lengthAdjust="spacingAndGlyphs">R21</text><rect x="434.6" y="356.7" width="12.5" height="12.5" rx="6.3" fill="var(--wash)" stroke="var(--koke-line)" stroke-width="0.9"/><text x="440.9" y="364.5" font-size="4.6" font-family="var(--mono)" fill="var(--koke)" text-anchor="middle">R4</text><rect x="449.2" y="356.7" width="12.5" height="12.5" rx="6.3" fill="var(--wash)" stroke="var(--koke-line)" stroke-width="0.9"/><text x="455.5" y="364.5" font-size="4.6" font-family="var(--mono)" fill="var(--koke)" text-anchor="middle">R5</text><rect x="463.8" y="356.7" width="12.5" height="12.5" rx="6.3" fill="var(--wash)" stroke="var(--koke-line)" stroke-width="0.9"/><text x="470.1" y="364.5" font-size="4.6" font-family="var(--mono)" fill="var(--koke)" text-anchor="middle">R6</text><rect x="478.3" y="356.7" width="12.5" height="12.5" rx="6.3" fill="var(--wash)" stroke="var(--koke-line)" stroke-width="0.9"/><text x="484.6" y="364.5" font-size="4.6" font-family="var(--mono)" fill="var(--koke)" text-anchor="middle">R8</text><rect x="492.9" y="356.7" width="12.5" height="12.5" rx="6.3" fill="var(--wash)" stroke="var(--koke-line)" stroke-width="0.9"/><text x="499.2" y="364.5" font-size="4.6" font-family="var(--mono)" fill="var(--koke)" text-anchor="middle" textLength="6.5" lengthAdjust="spacingAndGlyphs">R22</text><g opacity="0.35"><rect x="8.8" y="356.7" width="12.5" height="12.5" rx="6.3" fill="var(--wash)" stroke="var(--line2)" stroke-width="0.9"/><text x="15.1" y="364.5" font-size="4.6" font-family="var(--mono)" fill="var(--ink-2)" text-anchor="middle">‹</text></g><rect x="578.8" y="356.7" width="12.5" height="12.5" rx="6.3" fill="var(--wash)" stroke="var(--line2)" stroke-width="0.9"/><text x="585.1" y="364.5" font-size="4.6" font-family="var(--mono)" fill="var(--ink-2)" text-anchor="middle">›</text><rect x="437.5" y="45.4" width="19.2" height="7.9" rx="4" fill="var(--wash)" stroke="var(--line3)" stroke-width="0.9"/><text x="447.1" y="50.7" font-size="4" font-family="var(--mono)" fill="var(--ink)" text-anchor="middle">step</text><rect x="418.3" y="45.4" width="18.8" height="7.9" rx="4" fill="var(--wash)" stroke="var(--line2)" stroke-width="0.9"/><text x="427.7" y="50.7" font-size="4" font-family="var(--mono)" fill="var(--ink-3)" text-anchor="middle">auto</text><g opacity="0.4"><rect x="162.9" y="182.1" width="11.7" height="11.7" rx="5.9" fill="var(--paper)" stroke="var(--line2)" stroke-width="0.9"/><text x="168.8" y="190.1" font-size="6.3" font-family="var(--sans)" fill="var(--ink-4)" text-anchor="middle">‹</text></g><rect x="522.1" y="182.1" width="11.7" height="11.7" rx="5.9" fill="var(--paper)" stroke="var(--line2)" stroke-width="0.9"/><text x="528" y="190.1" font-size="6.3" font-family="var(--sans)" fill="var(--ink)" text-anchor="middle">›</text><rect x="556.3" y="184.6" width="19.2" height="7.1" rx="3.6" fill="var(--wash)" stroke="var(--line2)" stroke-width="0.9"/><text x="560.1" y="189.6" font-size="4.2" font-family="var(--mono)" fill="var(--ink-3)">WHEN</text><text x="465.8" y="50.8" font-size="4" font-family="var(--mono)" fill="var(--ink-3)">PLAY SPEED</text><rect x="27.9" y="225" width="10.8" height="10.8" rx="5.4" fill="var(--paper)" stroke="var(--line3)" stroke-width="0.9"/><text x="44.2" y="105.6" font-size="5.5" font-family="var(--sans)" fill="var(--ink-3)" textLength="14.6" lengthAdjust="spacingAndGlyphs">Given</text><text x="538.3" y="189.5" font-size="4.8" font-family="var(--mono)" fill="var(--ink)">1 / 2</text><text x="11.7" y="18.7" font-size="4" font-family="var(--mono)" fill="var(--ink-4)">Core · /</text><text x="404.2" y="50.8" font-size="4" font-family="var(--mono)" fill="var(--ink-3)">PLAY</text><text x="17.9" y="50.8" font-size="4.8" font-family="var(--mono)" fill="var(--ink-3)">R1</text><rect x="0" y="0" width="600" height="375" fill="var(--ink)" opacity="0.12"/><rect x="15.2" y="174.8" width="144.6" height="163.4" rx="3.5" fill="none" stroke="var(--paper)" stroke-width="1.3" opacity="0.92"/><rect x="16.2" y="175.8" width="142.5" height="161.3" rx="2.5" fill="none" stroke="var(--ai)" stroke-width="0.8"/><text x="27.1" y="257.9" font-size="4" font-family="var(--sans)" fill="var(--ink)">1 When you open the board's home Then exactly on</text><rect x="12.5" y="70.3" width="150" height="102.8" rx="5" fill="var(--ink)" opacity="0.1"/><rect x="12.5" y="67.8" width="150" height="102.8" rx="5" fill="var(--paper)" stroke="var(--line2)" stroke-width="0.4"/><path d="M83.9 170.4 L87.5 174.1 L91 170.4 Z" fill="var(--paper)"/><path d="M83.9 170.4 L87.5 174.1 L91 170.4" fill="none" stroke="var(--line2)" stroke-width="0.4" stroke-linejoin="round"/><rect x="20" y="73.6" width="14.3" height="7.7" rx="1.7" fill="none" stroke="var(--line2)" stroke-width="0.4"/><text x="27.2" y="79.3" font-size="5" font-family="var(--mono)" fill="var(--ink-3)" text-anchor="middle" font-weight="600">R19</text><text x="20" y="92.2" font-size="5" font-family="var(--mono)" fill="var(--ai)" font-weight="600" letter-spacing="0.4">THEN</text><text x="37" y="92.2" font-size="7.1" font-family="var(--sans)" fill="var(--ink)" font-weight="600">both sides carry that beat and</text><text x="37" y="102.1" font-size="7.1" font-family="var(--sans)" fill="var(--ink)" font-weight="600">no other — the drawing derived</text><text x="37" y="112" font-size="7.1" font-family="var(--sans)" fill="var(--ink)" font-weight="600">from and labelled with its When</text><text x="37" y="121.9" font-size="7.1" font-family="var(--sans)" fill="var(--ink)" font-weight="600">→ Then, the row's text cell</text><text x="37" y="131.9" font-size="7.1" font-family="var(--sans)" fill="var(--ink)" font-weight="600">showing the same sentence —</text><text x="37" y="141.8" font-size="7.1" font-family="var(--sans)" fill="var(--ink)" font-weight="600">while the Given row stays</text><text x="37" y="151.7" font-size="7.1" font-family="var(--sans)" fill="var(--ink)" font-weight="600">whole-page and uncaptioned on</text><text x="37" y="161.6" font-size="7.1" font-family="var(--sans)" fill="var(--ink)" font-weight="600">both sides</text><path d="M76.7 159.8 l2.2 2.2 l4.2 -5.1" fill="none" stroke="var(--ok)" stroke-width="1.3" stroke-linecap="round" stroke-linejoin="round"/></g></svg>
